<svg width="47" height="47" viewBox="0 0 47 47" fill="none" xmlns="http://www.w3.org/2000/svg">
<path fill-rule="evenodd" clip-rule="evenodd" d="M23.3332 -1.01993e-06C36.2198 -4.56639e-07 46.6665 10.4467 46.6665 23.3333C46.6665 36.2199 36.2198 46.6667 23.3332 46.6667C10.4466 46.6667 -0.000161801 36.2199 -0.000161237 23.3333C-0.000160674 10.4467 10.4466 -1.58322e-06 23.3332 -1.01993e-06ZM34.3164 21.6834C35.2276 22.5946 35.2276 24.0721 34.3164 24.9832L24.9831 34.3166C24.0719 35.2277 22.5944 35.2277 21.6833 34.3166C20.7721 33.4054 20.7721 31.9279 21.6833 31.0168L27.0334 25.6667L13.9998 25.6667C12.7111 25.6667 11.6665 24.622 11.6665 23.3333C11.6665 22.0446 12.7111 21 13.9998 21L27.0334 21L21.6833 15.6499C20.7721 14.7387 20.7721 13.2613 21.6833 12.3501C22.5944 11.4389 24.0719 11.4389 24.9831 12.3501L34.3164 21.6834Z" fill="white" fill-opacity="0.34"/>
</svg>
