<svg width="70" height="70" viewBox="0 0 70 70" fill="none" xmlns="http://www.w3.org/2000/svg">
<g clip-path="url(#clip0_192_10661)">
<path d="M35 70C54.33 70 70 54.33 70 35C70 15.67 54.33 0 35 0C15.67 0 0 15.67 0 35C0 54.33 15.67 70 35 70Z" fill="#F0F0F0"/>
<path d="M35 0C27.9759 0 21.4364 2.07061 15.9551 5.63254L24.9565 11.6658L13.6957 17.499L24.9565 23.3323L13.6957 29.1655L24.9565 34.9981L13.6957 40.8312L24.9565 46.6643L13.6957 52.4981L24.9565 58.3313L15.954 64.3665C21.4356 67.9291 27.9755 70 35 70C54.3298 70 70 54.3298 70 35C70 15.6702 54.3298 0 35 0Z" fill="#D80027"/>
</g>
<defs>
<clipPath id="clip0_192_10661">
<rect width="70" height="70" fill="white"/>
</clipPath>
</defs>
</svg>
