<svg width="251" height="301" viewBox="0 0 251 301" fill="none" xmlns="http://www.w3.org/2000/svg">
<path d="M189.33 95.1021L195.751 101.505C202.234 111.517 211.286 121.436 220.274 127.776C218.364 123.758 218.301 119.113 216.328 115.095C212.319 103.922 199.572 98.4918 189.361 95.1021" fill="#1E95DF"/>
<path d="M58.976 96.3262C51.052 99.4962 42.5016 102.07 36.5821 109.509C32.0093 115.504 30.5999 122.66 28.2822 129.502L35.2666 123.507C45.9155 116.069 48.6717 103.985 58.976 96.3262Z" fill="#1E95DF"/>
<path d="M213.917 106.778C222.718 112.616 222.154 123.351 225.318 132.108C226.163 135.748 228.387 139.107 228.638 142.779C223.908 129.032 207.935 127.525 202.109 114.531L203.957 122.126C208.436 136.878 226.007 140.456 232.647 153.796C230.579 144.129 234.244 134.022 231.3 124.543C228.888 116.383 222.154 109.226 213.917 106.81" fill="#1E95DF"/>
<path d="M20.4525 119.929C13.7187 129.848 19.1997 143.626 17.2892 155.365C19.7008 150.532 24.3675 145.949 28.4392 142.528C37.8352 136.439 46.229 126.772 46.5735 115.943C41.5623 128.78 25.1192 130.444 21.0476 144.097H20.6404C26.7165 132.767 23.3026 116.759 34.8598 108.348C28.7837 110.105 23.6158 114.594 20.4525 119.929Z" fill="#1E95DF"/>
<path d="M233.054 122.911C239.193 131.919 235.716 144.599 235.309 155.114C235.56 160.199 236.405 165.283 236.061 170.368C235.309 168.359 235.152 166.194 234.651 164.122C232.146 152.697 218.772 147.11 213.354 137.537C214.199 140.802 214.763 144.034 215.922 147.11C220.588 160.607 234.557 169.709 236.468 184.367C237.721 170.368 247.524 159.194 243.859 143.94C241.949 136.251 238.786 128.749 233.054 122.911Z" fill="#1E95DF"/>
<path d="M16.0047 124.763C11.1814 130.506 7.92413 137.443 6.26416 144.788C3.03819 160.136 12.2776 171.969 14.2508 185.967C16.913 168.359 35.3919 157.279 36.3942 138.95C30.9758 148.868 17.8526 154.612 15.441 166.382C15.441 168.296 14.8459 170.148 14.4387 171.969L14.0316 171.561L14.6893 163.965C16.913 150.374 9.02034 136.376 16.0361 124.794" fill="#1E95DF"/>
<path d="M247.022 155.365C249.34 168.892 241.197 179.062 237.877 190.801C236.029 195.32 236.78 201.064 234.056 204.987C233.899 202.728 235.152 200.562 235.308 198.145C237.376 183.048 224.315 174.165 221.34 161.391C221.183 164.844 221.434 168.076 221.903 171.152C222.655 187.065 233.053 199.997 230.047 216.601C233.053 212.677 235.308 208.691 238.879 204.83C250.843 192.338 253.913 171.403 247.022 155.396" fill="#1E95DF"/>
<path d="M3.25682 157.091C-1.06537 167.104 -0.814806 180.349 2.41117 190.769C5.22999 201.535 15.4717 209.037 20.7961 218.358C19.8878 214.435 20.0444 209.507 20.6395 205.521C24.1474 191.617 29.6284 178.183 28.7828 162.772C26.7156 173.852 16.8185 181.699 15.6596 193.123C14.9079 197.8 16.0668 202.383 16.6619 206.557C15.5657 204.454 14.5634 202.037 14.4068 199.369C12.7468 184.366 0.688563 173.35 3.25682 157.091Z" fill="#1E95DF"/>
<path d="M223.313 190.11C215.42 207.216 221.152 229.878 211.505 246.136L213.102 244.818C231.8 234.586 254.351 217.323 250.624 192.119C250.311 195.54 249.214 198.616 247.648 201.535C240.319 212.96 227.854 222.282 221.684 234.146C221.527 234.586 220.932 234.805 220.682 234.397L221.935 232.796C230.767 220.053 222.843 204.36 223.344 190.11" fill="#1E95DF"/>
<path d="M27.4049 191.805C28.4072 197.329 26.6533 202.163 25.8076 207.153C22.9888 216.758 24.3982 227.994 29.9732 235.841C28.1566 234.931 26.9978 232.734 25.8076 230.851C18.8858 217.543 1.53446 210.041 -0.000225572 194.128C-0.0941861 199.903 -0.0941862 205.961 1.65974 211.14C6.48305 228.967 26.1208 238.164 39.3379 247.14C29.9419 230.882 34.9218 208.817 27.3736 191.774" fill="#1E95DF"/>
<path d="M215.326 215.377L208.342 224.542C198.946 237.536 200.042 255.301 186.981 266.38C193.715 264.215 201.107 263.304 208.091 261.798C223.814 257.812 240.351 242.275 242.606 226.111C239.787 232.859 233.868 237.85 227.886 241.773C217.581 246.607 207.089 252.099 198.351 259.789H197.348L197.944 258.942C213.009 248.929 208.906 229.595 215.326 215.345" fill="#1E95DF"/>
<path d="M35.3914 216.82L37.803 222.972C40.1207 236.814 41.2169 252.068 53.7763 260.825L53.6197 260.982C49.5481 259.224 46.4787 255.803 42.8142 253.574C31.0065 245.885 14.6887 242.463 8.04883 227.806C9.8654 238.571 17.1943 248.144 26.0266 254.83C36.5815 264.152 51.3333 263.43 64.2059 267.165C59.4453 263.493 56.8144 259.318 54.6533 254.171C49.8926 241.082 45.7583 227.398 35.4227 216.82" fill="#1E95DF"/>
<path d="M197.505 242.401C187.921 248.678 179.684 259.318 170.977 266.161C166.153 269.833 160.391 270.9 154.753 272.564C167.25 273.505 177.617 279.406 190.709 278.559C204.677 277.962 217.487 269.802 224.065 257.372C214.418 268.891 198.946 268.201 184.726 269.55C179.997 270.115 175.33 271.559 170.601 271.559C170.758 271.402 170.914 271.057 171.165 271.151C186.731 269.833 191.116 252.915 197.536 242.401" fill="#1E95DF"/>
<path d="M53.1817 243.405C59.571 250.906 59.8216 260.825 68.7479 266.976C72.1618 269.99 76.7345 270.586 80.5556 272.155C76.296 272.563 72.4123 270.806 68.1841 270.555C53.8708 268.797 37.4903 270.617 26.998 258.973C31.7274 267.29 40.1525 274.572 48.9535 277.397C65.5845 283.737 80.6495 274.384 96.5289 272.971C78.0813 272.155 68.0901 251.942 53.1817 243.374" fill="#1E95DF"/>
<path d="M172.982 282.419C158.762 275.922 142.288 268.672 125.657 274.823C117.263 272.061 106.27 272.061 97.8759 274.823C83.2494 281.509 63.2671 291.584 47.7949 280.41C50.7077 283.894 53.871 285.558 57.191 288.006C67.1508 294.503 81.5581 293.844 91.8937 288.571C101.384 284.585 108.619 272.658 120.677 276.393C110.435 281.54 101.039 287.723 92.5515 296.543L97.7193 300.969C105.205 291.05 115.259 282.796 126.095 277.962C136.588 283.047 146.14 291.804 154.033 300.592L159.201 296.135C150.901 288.037 141.254 281.54 131.263 276.393C133.831 275.734 136.995 275.891 139.657 276.142C150.462 280.881 158.794 290.391 171.04 291.804C184.006 293.875 195.564 288.634 203.55 279.123L197.411 282.388C190.176 285.621 180.436 284.804 173.044 282.388" fill="#1E95DF"/>
<path d="M129.321 1.94575C128.883 23.4144 137.151 41.399 145.827 59.2582C162.771 90.7078 189.518 118.171 198.601 152.822C205.868 182.954 200.136 216.161 179.277 238.948C164.431 254.798 144.135 261.327 122.994 264.277L122.587 263.744C133.768 253.48 136.305 237.096 131.827 222.815C126.502 205.741 112.784 192.025 106.081 175.484C97.6876 158.943 92.0813 141.084 94.0232 120.965C95.276 107.908 97.0926 95.2589 100.475 82.9866C100.757 82.7355 101.164 82.9866 101.477 82.8611C93.7726 118.579 117.858 145.792 141.097 171.246C151.183 183.77 159.013 197.266 161.675 212.834C162.928 207.373 161.55 201.095 160.14 195.791C151.308 167.543 135.773 141.806 126.252 113.809C120.645 95.6669 117.827 76.3326 117.012 56.3392C117.169 56.0881 117.451 55.9312 117.858 56.0881C118.296 84.6187 136.775 106.213 151.903 129C167.438 149.025 181.594 169.52 183.693 194.849H183.975C187.89 176.206 183.004 157.122 175.863 140.99L155.411 97.6757C142.319 66.7282 127.504 36.4713 128.194 0.34502C129.321 -0.847681 129.196 1.38079 129.321 1.94575Z" fill="#1E95DF"/>
<path d="M60.8867 132.986C55.2803 145.792 54.9985 162.176 59.0701 175.766C63.5489 194.285 81.8712 210.7 100.225 216.444C82.0278 195.634 77.549 166.978 82.3097 139.232C82.4349 138.981 82.7168 139.107 82.9987 138.981C81.5893 151.504 83.4372 163.934 87.7594 174.699C92.9272 189.514 103.169 202.445 115.071 214.058C122.901 223.788 128.35 237.755 122.055 249.902C119.549 254.296 116.167 257.78 111.845 261.233L110.999 261.107C112.534 256.305 108.18 252.978 104.829 250.185C84.3768 238.603 58.7569 223.537 51.8978 200.342C44.6315 177.398 52.0544 153.419 59.7591 133.017L60.6048 132.484L60.8867 133.017" fill="#1E95DF"/>
</svg>
