<svg width="70" height="70" viewBox="0 0 70 70" fill="none" xmlns="http://www.w3.org/2000/svg">
<g clip-path="url(#clip0_146_18305)">
<path d="M35 70C54.3299 70 70 54.3299 70 35C70 15.67 54.3299 0 35 0C15.67 0 0 15.67 0 35C0 54.3299 15.67 70 35 70Z" fill="#D80027"/>
<path d="M35.0005 51.7397C44.2455 51.7397 51.7402 44.245 51.7402 35C51.7402 25.7549 44.2455 18.2603 35.0005 18.2603C25.7554 18.2603 18.2607 25.7549 18.2607 35C18.2607 44.245 25.7554 51.7397 35.0005 51.7397Z" fill="#F0F0F0"/>
<path fill-rule="evenodd" clip-rule="evenodd" d="M28.9143 34.9999C28.9283 40.4539 33.3517 44.8687 38.8057 44.8718L38.8037 44.8893C40.447 44.8919 42.0648 44.4828 43.5093 43.6994C41.2378 45.9273 38.1821 47.1737 35.0004 47.1702C30.6516 47.1702 26.6333 44.8503 24.459 41.0841C22.2845 37.3181 22.2845 32.678 24.459 28.9118C26.6333 25.1458 30.6516 22.8257 35.0004 22.8257C38.1798 22.8162 41.2358 24.0548 43.5112 26.2752C42.1112 25.5363 40.509 25.1085 38.8057 25.1085C33.3441 25.1118 28.9174 29.5385 28.9143 34.9999ZM39.9335 32.5402L37.0615 28.5832L37.0226 33.4716L32.3715 34.9805L37.0382 36.4932L37.0343 41.3816L39.9121 37.4285L44.5787 38.9413L41.7068 34.9844L44.5846 31.0313L39.9335 32.5402Z" fill="#D80027"/>
</g>
<defs>
<clipPath id="clip0_146_18305">
<rect width="70" height="70" fill="white"/>
</clipPath>
</defs>
</svg>
