<svg width="70" height="70" viewBox="0 0 70 70" fill="none" xmlns="http://www.w3.org/2000/svg">
<path d="M35 70C54.33 70 70 54.33 70 35C70 15.67 54.33 0 35 0C15.67 0 0 15.67 0 35C0 54.33 15.67 70 35 70Z" fill="black"/>
<path d="M70 35C70 54.3667 54.3667 70 35 70C15.6333 70 0 54.3667 0 35H70Z" fill="#009245"/>
<path d="M0 35C0 38.9667 0.7 42.9334 2.1 46.6667H68.1333C70.9333 39.2 70.9333 30.8 68.1333 23.3334H2.1C0.7 27.0667 0 31.0334 0 35Z" fill="#F0F0F0"/>
<path d="M10.0336 10.5C-3.26641 24.0333 -3.26641 45.7333 10.0336 59.2667L42.0003 35L10.0336 10.5Z" fill="#ED1C24"/>
</svg>
