<svg width="159" height="54" viewBox="0 0 159 54" fill="none" xmlns="http://www.w3.org/2000/svg">
<g clip-path="url(#clip0_46_223)">
<path d="M34.1572 17.0472L35.3156 18.195C36.4852 19.9897 38.1182 21.7676 39.7399 22.9041C39.3953 22.1839 39.384 21.3513 39.028 20.6311C38.3047 18.6282 36.0049 17.6549 34.1629 17.0472" fill="#888888"/>
<path d="M10.64 17.2667C9.21047 17.835 7.66788 18.2963 6.59993 19.6297C5.77495 20.7043 5.52068 21.9871 5.10254 23.2136L6.36261 22.139C8.28378 20.8056 8.78103 18.6395 10.64 17.2667Z" fill="#888888"/>
<path d="M38.5931 19.1403C40.1809 20.1867 40.0792 22.1109 40.6499 23.6806C40.8025 24.3332 41.2037 24.9352 41.2489 25.5935C40.3957 23.1292 37.5139 22.8592 36.4629 20.5299L36.7963 21.8915C37.6043 24.5358 40.7742 25.1771 41.9721 27.5683C41.5992 25.8354 42.2603 24.0238 41.7292 22.3247C41.2941 20.8619 40.0792 19.5791 38.5931 19.1459" fill="#888888"/>
<path d="M3.68974 21.4976C2.47487 23.2754 3.46372 25.7453 3.11903 27.8495C3.55412 26.9831 4.39605 26.1617 5.13062 25.5484C6.82577 24.4569 8.34011 22.7241 8.40227 20.783C7.49819 23.0841 4.53166 23.3823 3.7971 25.8297H3.72364C4.81984 23.7987 4.20393 20.9293 6.28898 19.4215C5.19277 19.7366 4.26044 20.5411 3.68974 21.4976Z" fill="#888888"/>
<path d="M42.0454 22.0321C43.1529 23.6468 42.5257 25.9198 42.4522 27.8046C42.4974 28.716 42.65 29.6274 42.5878 30.5389C42.4522 30.1788 42.424 29.7906 42.3336 29.4193C41.8815 27.3713 39.4688 26.3699 38.4912 24.6539C38.6438 25.239 38.7455 25.8185 38.9546 26.3699C39.7965 28.7891 42.3166 30.4207 42.6613 33.0482C42.8873 30.5389 44.6559 28.536 43.9948 25.8016C43.6501 24.4232 43.0794 23.0786 42.0454 22.0321Z" fill="#888888"/>
<path d="M2.88731 22.364C2.01713 23.3936 1.42947 24.637 1.13 25.9535C0.547993 28.7047 2.2149 30.8258 2.57088 33.335C3.05117 30.1788 6.38498 28.1927 6.5658 24.907C5.58826 26.6849 3.22069 27.7145 2.7856 29.8243C2.7856 30.1675 2.67824 30.4995 2.60478 30.8258L2.53133 30.7526L2.64999 29.3911C3.05117 26.955 1.62724 24.4457 2.89296 22.3696" fill="#888888"/>
<path d="M44.5657 27.8496C44.9838 30.2745 43.5147 32.0974 42.9157 34.2016C42.5823 35.0117 42.7179 36.0413 42.2264 36.7446C42.1981 36.3395 42.4241 35.9513 42.4524 35.5181C42.8253 32.8119 40.469 31.2197 39.9322 28.9298C39.904 29.5487 39.9492 30.1282 40.0339 30.6796C40.1696 33.532 42.0455 35.85 41.5031 38.8263C42.0455 38.123 42.4524 37.4085 43.0965 36.7165C45.255 34.4772 45.8088 30.7246 44.5657 27.8552" fill="#888888"/>
<path d="M0.587743 28.1589C-0.192028 29.9537 -0.146824 32.3279 0.435179 34.1958C0.943726 36.1256 2.79145 37.4703 3.75203 39.1412C3.58817 38.438 3.61642 37.5546 3.72378 36.8401C4.35664 34.3477 5.34548 31.9397 5.19292 29.1773C4.81998 31.1633 3.03442 32.5699 2.82535 34.6178C2.68974 35.4561 2.89881 36.2775 3.00617 37.0258C2.8084 36.6488 2.62758 36.2156 2.59933 35.7374C2.29985 33.0481 0.124401 31.0733 0.587743 28.1589Z" fill="#888888"/>
<path d="M40.2885 34.0778C38.8645 37.144 39.8986 41.2061 38.1582 44.1205L38.4464 43.8842C41.8197 42.05 45.8881 38.9556 45.2157 34.4378C45.1592 35.0511 44.9614 35.6025 44.6789 36.1257C43.3567 38.1736 41.1078 39.8446 39.9946 41.9713C39.9664 42.05 39.859 42.0894 39.8138 42.0163L40.0398 41.7294C41.6333 39.4451 40.2037 36.632 40.2941 34.0778" fill="#888888"/>
<path d="M4.94412 34.3815C5.12494 35.3717 4.80851 36.2381 4.65594 37.1327C4.1474 38.8543 4.40167 40.8685 5.40746 42.275C5.07973 42.1118 4.87066 41.718 4.65594 41.3804C3.40718 38.9949 0.276789 37.6503 -8.60305e-05 34.7978C-0.0170376 35.833 -0.0170376 36.9189 0.299392 37.8472C1.16957 41.0429 4.71245 42.6913 7.09697 44.3004C5.40181 41.3861 6.30024 37.4309 4.93847 34.3759" fill="#888888"/>
<path d="M38.8471 38.6068L37.5871 40.2497C35.8919 42.5789 36.0897 45.7633 33.7334 47.7494C34.9483 47.3611 36.2818 47.198 37.5419 46.9279C40.3784 46.2134 43.3619 43.4285 43.7687 40.531C43.2602 41.7406 42.1922 42.6352 41.113 43.3384C39.254 44.2049 37.361 45.1894 35.7845 46.5679H35.6037L35.7111 46.4159C38.429 44.6212 37.6888 41.1555 38.8471 38.6012" fill="#888888"/>
<path d="M6.38505 38.8656L6.82014 39.9683C7.23828 42.4495 7.43605 45.1838 9.70191 46.7535L9.67366 46.7816C8.93909 46.4666 8.38534 45.8533 7.72423 45.4538C5.59398 44.0754 2.65006 43.4622 1.45215 40.8348C1.77988 42.7645 3.1021 44.4805 4.69555 45.6789C6.59977 47.3499 9.26117 47.2205 11.5835 47.89C10.7247 47.2317 10.25 46.4834 9.86012 45.5607C9.00124 43.2146 8.25538 40.7616 6.3907 38.8656" fill="#888888"/>
<path d="M35.6324 43.4509C33.9033 44.5762 32.4172 46.4834 30.8464 47.7099C29.9762 48.3682 28.9365 48.5595 27.9194 48.8577C30.174 49.0265 32.0443 50.0842 34.4062 49.9323C36.9264 49.8254 39.2374 48.3626 40.424 46.1346C38.6837 48.1994 35.8923 48.0756 33.327 48.3176C32.4738 48.4188 31.6318 48.6776 30.7786 48.6776C30.8069 48.6495 30.8351 48.5876 30.8803 48.6045C33.6886 48.3682 34.4797 45.3357 35.638 43.4509" fill="#888888"/>
<path d="M9.59444 43.631C10.7471 44.9756 10.7924 46.7535 12.4027 47.8562C13.0187 48.3964 13.8436 48.5033 14.533 48.7846C13.7645 48.8577 13.0639 48.5426 12.301 48.4976C9.71875 48.1826 6.76353 48.5089 4.87061 46.4216C5.72383 47.9125 7.24382 49.2178 8.83162 49.7241C11.832 50.8606 14.5499 49.184 17.4148 48.9308C14.0866 48.7846 12.2841 45.1613 9.59444 43.6254" fill="#888888"/>
<path d="M31.2077 50.6243C28.6424 49.4597 25.6702 48.16 22.6698 49.2628C21.1554 48.7677 19.1721 48.7677 17.6577 49.2628C15.0189 50.4611 11.4139 52.2671 8.62256 50.2642C9.14806 50.8887 9.71876 51.1869 10.3177 51.6258C12.1146 52.7904 14.7138 52.6722 16.5785 51.727C18.2906 51.0125 19.5959 48.8746 21.7713 49.5441C19.9236 50.4668 18.2284 51.5751 16.6972 53.1561L17.6295 53.9494C18.98 52.1715 20.7938 50.6918 22.7489 49.8254C24.6418 50.7368 26.3652 52.3065 27.7891 53.8819L28.7215 53.0829C27.2241 51.6314 25.4837 50.4668 23.6812 49.5441C24.1445 49.4259 24.7152 49.4541 25.1955 49.4991C27.145 50.3486 28.648 52.0533 30.8574 52.3065C33.1967 52.6779 35.2817 51.7383 36.7226 50.0336L35.6151 50.6187C34.3098 51.1982 32.5525 51.0519 31.219 50.6187" fill="#888888"/>
<path d="M23.3312 0.348833C23.2521 4.19713 24.7439 7.42093 26.3091 10.6222C29.366 16.2596 34.1915 21.1825 35.8302 27.3938C37.1411 32.795 36.1071 38.7475 32.3438 42.8321C29.6655 45.6733 26.0039 46.8435 22.1898 47.3724L22.1164 47.2767C24.1336 45.437 24.5913 42.5001 23.7833 39.9402C22.8227 36.8796 20.3478 34.4209 19.1385 31.4559C17.6242 28.4909 16.6128 25.2897 16.9631 21.6833C17.1891 19.3428 17.5169 17.0754 18.1271 14.8756C18.178 14.8306 18.2514 14.8756 18.3079 14.8531C16.9179 21.2557 21.2631 26.1336 25.4558 30.6964C27.2753 32.9412 28.6879 35.3605 29.1682 38.1511C29.3942 37.1721 29.1456 36.0469 28.8913 35.0961C27.2979 30.0325 24.4952 25.4191 22.7775 20.4005C21.766 17.1486 21.2575 13.6829 21.1106 10.099C21.1388 10.054 21.1897 10.0258 21.2631 10.054C21.3423 15.1682 24.6761 19.039 27.4053 23.1236C30.2079 26.7131 32.762 30.387 33.1405 34.9273H33.1914C33.8977 31.5853 33.0162 28.1646 31.7279 25.2728L28.0381 17.5087C25.6762 11.9613 23.0035 6.53762 23.1278 0.0618987C23.3312 -0.151896 23.3086 0.247562 23.3312 0.348833Z" fill="#888888"/>
<path d="M10.9846 23.8381C9.97319 26.1335 9.92234 29.0704 10.6569 31.5065C11.4649 34.826 14.7705 37.7685 18.0817 38.7981C14.7987 35.0679 13.9907 29.9312 14.8496 24.9577C14.8722 24.9127 14.923 24.9352 14.9739 24.9127C14.7196 27.1575 15.053 29.3855 15.8328 31.3152C16.7651 33.9708 18.6128 36.2888 20.76 38.3705C22.1727 40.1146 23.1559 42.6182 22.0201 44.7956C21.5681 45.5832 20.9578 46.2077 20.178 46.8266L20.0255 46.8041C20.3023 45.9433 19.5169 45.3469 18.9123 44.8462C15.2225 42.7701 10.6004 40.0696 9.36293 35.9118C8.05201 31.7991 9.39119 27.5007 10.7812 23.8437L10.9338 23.748L10.9846 23.8437" fill="#888888"/>
<path d="M57.9573 18.0206H58.6015V24.3051C58.6015 25.3347 58.6015 26.218 57.9178 27.0563C57.2341 27.8327 56.1831 28.2321 55.166 28.2321C54.1489 28.2321 53.0979 27.8327 52.4142 27.0563C51.7305 26.2123 51.7305 25.329 51.7305 24.3051V18.0206H52.3746V24.1194C52.3746 25.0308 52.3746 25.9929 52.8945 26.6568C53.3917 27.2982 54.3862 27.6301 55.166 27.6301C55.9458 27.6301 56.9402 27.2982 57.4375 26.6568C57.963 25.9873 57.963 25.0252 57.963 24.1194V18.0206H57.9573Z" fill="#888888"/>
<path d="M55.1661 28.4121C54.0417 28.4121 52.9624 27.9508 52.2787 27.1744C51.5498 26.2798 51.5498 25.3628 51.5498 24.305V17.8462H52.5499V24.1194C52.5499 25.0083 52.5499 25.931 53.0359 26.5499C53.5162 27.1744 54.4768 27.4557 55.1661 27.4557C55.8555 27.4557 56.8104 27.1744 57.2964 26.5499C57.7823 25.931 57.7823 25.0083 57.7823 24.1194V17.8462H58.7825V24.305C58.7825 25.3628 58.7825 26.2798 58.0592 27.1688C57.3698 27.9508 56.2906 28.4121 55.1661 28.4121ZM51.9058 18.2006V24.305C51.9058 25.3403 51.9058 26.156 52.5499 26.9493C53.1602 27.6414 54.1434 28.0577 55.1661 28.0577C56.1889 28.0577 57.1664 27.6414 57.788 26.9437C58.4265 26.156 58.4265 25.3403 58.4265 24.305V18.2006H58.1383V24.1194C58.1383 25.0702 58.1383 26.0492 57.5789 26.7693C57.0252 27.4838 55.9403 27.8158 55.1718 27.8158C54.4033 27.8158 53.3184 27.4895 52.7647 26.7693C52.2053 26.0548 52.2053 25.0702 52.2053 24.1194V18.2006H51.9171H51.9058Z" fill="#888888"/>
<path d="M69.8237 28.4347L61.3253 19.4384V28.1027H60.6812V17.8856L69.1795 26.82V18.0206H69.8237V28.4347Z" fill="#888888"/>
<path d="M70.0044 28.8848L61.506 19.8885V28.2828H60.5059V17.4468L69.0042 26.3755V17.8462H70.0044V28.8848ZM61.15 18.994L69.6484 27.9902V18.2007H69.3602V27.2644L60.8618 18.3357V27.9283H61.15V18.994Z" fill="#888888"/>
<path d="M72.6432 18.0206H71.999V28.1027H72.6432V18.0206Z" fill="#888888"/>
<path d="M72.818 28.2771H71.8179V17.8406H72.818V28.2771ZM72.1739 27.9227H72.462V18.195H72.1739V27.9227Z" fill="#888888"/>
<path d="M77.0733 28.1027H76.4292V18.6226H73.813V18.0206H79.6952V18.6226H77.0733V28.1027Z" fill="#888888"/>
<path d="M77.2538 28.2771H76.2537V18.797H73.6318V17.8406H79.87V18.797H77.2538V28.2771ZM76.6097 27.9227H76.8978V18.4426H79.514V18.195H73.9878V18.4426H76.604V27.9227H76.6097Z" fill="#888888"/>
<path d="M81.503 18.6226V22.2853H85.5884V22.8873H81.503V27.5007H85.6957V28.1027H80.8589V18.0206H85.6957V18.6226H81.503Z" fill="#888888"/>
<path d="M85.8708 28.2771H80.6836V17.8462H85.8708V18.8026H81.6837V22.1108H85.7634V23.0673H81.6837V27.3263H85.8708V28.2827V28.2771ZM81.0396 27.9227H85.5148V27.6751H81.3278V22.7072H85.4074V22.4597H81.3278V18.4426H85.5148V18.195H81.0396V27.9227Z" fill="#888888"/>
<path d="M87.6678 18.0206H89.4929C90.9677 18.0206 92.1373 18.2626 93.2505 19.2921C94.3128 20.2824 94.8609 21.6326 94.8609 23.0786C94.8609 24.5245 94.3241 25.7904 93.3013 26.7693C92.1882 27.8383 90.9903 28.1084 89.4872 28.1084H87.6621V18.0263L87.6678 18.0206ZM89.4759 27.5007C90.8038 27.5007 91.9057 27.2363 92.8719 26.2855C93.7308 25.4303 94.2167 24.2826 94.2167 23.0786C94.2167 21.7958 93.7082 20.5918 92.7532 19.7254C91.787 18.8533 90.736 18.6283 89.4759 18.6283H88.3063V27.5064H89.4759V27.5007Z" fill="#888888"/>
<path d="M89.4928 28.2771H87.4868V17.8406H89.4928C90.9675 17.8406 92.188 18.0656 93.3747 19.1571C94.4483 20.1586 95.0416 21.5482 95.0416 23.0729C95.0416 24.5976 94.4709 25.8973 93.4312 26.8931C92.1598 28.114 90.7924 28.2771 89.4928 28.2771ZM87.8428 27.9227H89.4928C90.8997 27.9227 92.0694 27.7033 93.1825 26.6343C94.1488 25.706 94.6856 24.4401 94.6856 23.0729C94.6856 21.7058 94.1318 20.3555 93.1317 19.4215C92.0355 18.4088 90.8828 18.2007 89.4928 18.2007H87.8428V27.9283V27.9227ZM89.4758 27.6751H88.131V18.4426H89.4758C90.5268 18.4426 91.753 18.5776 92.8718 19.5847C93.855 20.4793 94.3974 21.717 94.3974 23.0729C94.3974 24.3276 93.9002 25.509 93.0017 26.4036C92.0976 27.2925 91.041 27.6751 89.4814 27.6751M88.487 27.3207H89.4758C90.9393 27.3207 91.9168 26.9719 92.7474 26.1561C93.5781 25.329 94.0358 24.2319 94.0358 23.0729C94.0358 21.8183 93.5385 20.6762 92.6288 19.8491C91.7982 19.1008 90.8828 18.797 89.4701 18.797H88.4813V27.3207H88.487Z" fill="#888888"/>
<path d="M109.055 28.4347L100.557 19.4384V28.1027H99.9126V17.8856L108.411 26.82V18.0206H109.055V28.4347Z" fill="#888888"/>
<path d="M109.23 28.8848L100.732 19.8885V28.2828H99.7314V17.4468L108.23 26.3755V17.8462H109.23V28.8848ZM100.376 18.994L108.874 27.9902V18.2007H108.586V27.2644L100.087 18.3357V27.9283H100.376V18.994Z" fill="#888888"/>
<path d="M112.219 24.7889L110.863 28.1028H110.202L114.446 17.6887L118.678 28.1028H118.022L116.666 24.7889H112.219ZM114.451 19.3203L112.468 24.1869H116.429L114.457 19.3203H114.451Z" fill="#888888"/>
<path d="M118.943 28.2771H117.904L116.548 24.9633H112.344L110.987 28.2771H109.948L114.457 17.2161L118.949 28.2771H118.943ZM118.141 27.9227H118.412L114.446 18.1556L110.468 27.9227H110.739L112.095 24.6089H116.779L118.135 27.9227H118.141ZM116.689 24.3613H112.197L114.451 18.8477L116.689 24.3613ZM112.728 24.0069H116.158L114.446 19.7929L112.722 24.0069H112.728Z" fill="#888888"/>
<path d="M121.017 28.1027H120.373V18.6226H117.757V18.0206H123.633V18.6226H121.017V28.1027Z" fill="#888888"/>
<path d="M121.192 28.2771H120.192V18.797H117.57V17.8406H123.808V18.797H121.192V28.2771ZM120.548 27.9227H120.836V18.4426H123.452V18.195H117.926V18.4426H120.548V27.9227Z" fill="#888888"/>
<path d="M125.447 18.0206H124.803V28.1027H125.447V18.0206Z" fill="#888888"/>
<path d="M125.622 28.2771H124.622V17.8406H125.622V28.2771ZM124.978 27.9227H125.266V18.195H124.978V27.9227Z" fill="#888888"/>
<path d="M137.517 23.0617C137.517 25.8973 135.115 28.2378 132.267 28.2378C129.42 28.2378 127.018 25.8973 127.018 23.0617C127.018 20.2261 129.408 17.8912 132.267 17.8912C135.127 17.8912 137.517 20.2317 137.517 23.0617ZM127.662 23.0617C127.662 25.5485 129.742 27.6358 132.267 27.6358C134.793 27.6358 136.873 25.5372 136.873 23.0617C136.873 20.5862 134.776 18.4876 132.267 18.4876C129.759 18.4876 127.662 20.5749 127.662 23.0617Z" fill="#888888"/>
<path d="M132.268 28.4122C129.324 28.4122 126.837 25.9592 126.837 23.0617C126.837 20.1642 129.324 17.7112 132.268 17.7112C135.211 17.7112 137.698 20.1586 137.698 23.0617C137.698 25.9648 135.211 28.4122 132.268 28.4122ZM132.268 18.0656C129.516 18.0656 127.193 20.3555 127.193 23.0617C127.193 25.7679 129.516 28.0577 132.268 28.0577C135.019 28.0577 137.342 25.7679 137.342 23.0617C137.342 20.3555 135.019 18.0656 132.268 18.0656ZM132.268 27.8102C129.674 27.8102 127.482 25.6385 127.482 23.0617C127.482 20.4849 129.674 18.3132 132.268 18.3132C134.861 18.3132 137.048 20.4905 137.048 23.0617C137.048 25.6328 134.855 27.8102 132.268 27.8102ZM132.268 18.6676C129.866 18.6676 127.838 20.6818 127.838 23.0617C127.838 25.4415 129.866 27.4557 132.268 27.4557C134.669 27.4557 136.692 25.4415 136.692 23.0617C136.692 20.6818 134.663 18.6676 132.268 18.6676Z" fill="#888888"/>
<path d="M148.23 28.4347L139.732 19.4384V28.1027H139.087V17.8856L147.586 26.82V18.0206H148.23V28.4347Z" fill="#888888"/>
<path d="M148.411 28.8848L139.913 19.8885V28.2828H138.913V17.4468L147.411 26.3755V17.8462H148.411V28.8848ZM139.557 18.994L148.055 27.9902V18.2007H147.767V27.2644L139.269 18.3357V27.9283H139.557V18.994Z" fill="#888888"/>
<path d="M155.09 19.6804C154.632 18.9602 153.988 18.4933 153.039 18.4933C151.948 18.4933 151.129 19.3597 151.129 20.4174C151.129 21.4751 152.135 21.914 152.954 22.3022L154.886 23.3036C155.655 23.7875 156.039 24.4007 156.039 25.3066C156.039 26.9775 154.508 28.2322 152.869 28.2322C151.457 28.2322 150.36 27.3657 149.886 26.0661L150.451 25.8129C150.88 26.8819 151.671 27.6302 152.897 27.6302C154.225 27.6302 155.395 26.5893 155.395 25.2503C155.395 24.1138 154.225 23.63 153.355 23.2024L151.53 22.2403C150.858 21.824 150.485 21.2388 150.485 20.4343C150.485 18.9377 151.558 17.88 153.078 17.88C154.101 17.88 155.067 18.4257 155.548 19.2978L155.09 19.6691V19.6804Z" fill="#888888"/>
<path d="M152.875 28.4122C151.445 28.4122 150.236 27.5401 149.727 26.1279L149.671 25.976L150.552 25.5766L150.62 25.751C150.931 26.5274 151.581 27.4557 152.897 27.4557C154.214 27.4557 155.214 26.4486 155.214 25.2503C155.214 24.3051 154.282 23.8493 153.457 23.4499L153.276 23.3599L151.445 22.3978C150.682 21.9308 150.304 21.2726 150.304 20.4343C150.304 18.8533 151.468 17.7056 153.073 17.7056C154.157 17.7056 155.191 18.2963 155.7 19.2134L155.773 19.3428L155.045 19.9392L154.937 19.7704C154.468 19.0277 153.841 18.662 153.033 18.662C152.061 18.662 151.304 19.4328 151.304 20.4118C151.304 21.3232 152.18 21.7339 152.954 22.0996L153.033 22.1334L154.971 23.1404C155.83 23.6806 156.22 24.3613 156.22 25.3009C156.22 26.9831 154.689 28.4065 152.875 28.4065M150.123 26.1617C150.615 27.3545 151.632 28.0577 152.88 28.0577C154.502 28.0577 155.87 26.7975 155.87 25.3065C155.87 24.4907 155.542 23.9169 154.796 23.4499L152.807 22.4203C151.982 22.0321 150.954 21.5482 150.954 20.4118C150.954 19.2753 151.869 18.3076 153.039 18.3076C153.903 18.3076 154.604 18.6789 155.129 19.4103L155.316 19.2584C154.847 18.527 153.982 18.06 153.078 18.06C151.654 18.06 150.665 19.039 150.665 20.4343C150.665 21.1488 150.982 21.6889 151.626 22.0884L153.615 23.1292C154.485 23.5512 155.576 24.0744 155.576 25.2446C155.576 26.6568 154.378 27.7989 152.903 27.7989C151.773 27.7989 150.88 27.1744 150.366 26.0379L150.123 26.1505V26.1617Z" fill="#888888"/>
<path d="M57.4092 36.7107V32.7386H59.3812V42.8207H57.4092V38.3142H53.7533V42.8207H51.7812V32.7386H53.7533V36.7107H57.4092Z" fill="#888888"/>
<path d="M61.1782 32.7386H63.1503V38.3817C63.1503 39.6251 63.2576 41.3748 64.9358 41.3748C66.614 41.3748 66.7214 39.6251 66.7214 38.3817V32.7386H68.6934V38.7699C68.6934 41.2285 67.6481 43.0852 64.9358 43.0852C62.2236 43.0852 61.1782 41.2285 61.1782 38.7699V32.7386Z" fill="#888888"/>
<path d="M78.0562 36.5645H78.0279L75.7338 42.9502H75.0501L72.8351 36.5645H72.8069L71.9084 42.8208H69.9194L71.6259 32.4742H73.0216L75.5191 39.1188L77.9093 32.4742H79.3332L80.8475 42.8208H78.8642L78.0562 36.5645Z" fill="#888888"/>
<path d="M84.1927 40.6941L83.3621 42.8208H81.2827L85.2268 32.4742H86.7581L90.5948 42.8208H88.4871L87.7074 40.6941H84.1871H84.1927ZM85.8992 35.428H85.8709L84.7578 39.0906H87.1593L85.8992 35.428Z" fill="#888888"/>
<path d="M91.6006 32.4742H93.0245L98.3586 39.5182H98.3812V32.7387H100.359V43.0177H98.935L93.6065 35.9737H93.5783V42.8208H91.6006V32.4742Z" fill="#888888"/>
<path d="M113.327 42.8207H110.937L108.479 38.7587H108.451V42.8207H106.479V32.7386H109.151C111.151 32.7386 112.536 33.622 112.536 35.7712C112.536 37.0539 111.824 38.3367 110.468 38.5674L113.327 42.8207ZM108.451 37.3802H108.705C109.795 37.3802 110.558 37.0595 110.558 35.8274C110.558 34.5953 109.767 34.3421 108.716 34.3421H108.445V37.3746L108.451 37.3802Z" fill="#888888"/>
<path d="M116.344 32.7386H114.372V42.8207H116.344V32.7386Z" fill="#888888"/>
<path d="M127.125 37.459V37.7122C127.125 40.5591 125.662 43.0852 122.52 43.0852C119.565 43.0852 117.7 40.5984 117.7 37.8191C117.7 35.0398 119.621 32.4742 122.639 32.4742C124.357 32.4742 125.86 33.3407 126.639 34.8822L124.893 35.8162C124.492 34.9047 123.633 34.2127 122.582 34.2127C120.678 34.2127 119.734 36.1538 119.734 37.8247C119.734 39.4957 120.689 41.3523 122.594 41.3523C123.831 41.3523 124.865 40.2834 124.899 39.0681H122.752V37.4647H127.114L127.125 37.459Z" fill="#888888"/>
<path d="M134.138 36.7107V32.7386H136.11V42.8207H134.138V38.3142H130.487V42.8207H128.51V32.7386H130.487V36.7107H134.138Z" fill="#888888"/>
<path d="M141.252 42.8207H139.28V34.449H137.24V32.7386H143.291V34.449H141.252V42.8207Z" fill="#888888"/>
<path d="M149.185 34.961C148.806 34.4546 148.326 34.134 147.671 34.134C147.015 34.134 146.433 34.6178 146.433 35.2704C146.433 36.9695 150.445 36.2606 150.445 39.642C150.445 41.6618 149.185 43.0908 147.117 43.0908C145.721 43.0908 144.698 42.2919 144.003 41.1273L145.28 39.8839C145.552 40.6603 146.258 41.3523 147.106 41.3523C147.953 41.3523 148.405 40.6716 148.405 39.8952C148.405 38.8543 147.439 38.5561 146.648 38.2523C145.348 37.7178 144.393 37.0652 144.393 35.5011C144.393 33.8301 145.642 32.4799 147.349 32.4799C148.247 32.4799 149.496 32.9187 150.112 33.6051L149.185 34.9666V34.961Z" fill="#888888"/>
<path d="M54.5446 51.1531C54.5446 52.1546 54.5276 54 52.9681 54C51.4086 54 51.3916 52.1546 51.3916 51.1531C51.3916 50.1517 51.4086 48.3063 52.9681 48.3063C54.5276 48.3063 54.5446 50.1517 54.5446 51.1531ZM52.2505 51.1531C52.2505 52.329 52.3352 53.3079 52.9737 53.3079C53.6123 53.3079 53.697 52.329 53.697 51.1531C53.697 49.9772 53.6066 48.9983 52.9737 48.9983C52.3409 48.9983 52.2505 49.9772 52.2505 51.1531Z" fill="#888888"/>
<path d="M58.1154 48.3794V49.0208H56.7423V50.7649H57.9798V51.4063H56.7423V53.9268H55.9399V48.3794H58.1154Z" fill="#888888"/>
<path d="M61.4326 48.3794V49.0208H60.0538V50.7649H61.2913V51.4063H60.0538V53.9268H59.2515V48.3794H61.4326Z" fill="#888888"/>
<path d="M63.3649 48.3794H62.5625V53.9268H63.3649V48.3794Z" fill="#888888"/>
<path d="M67.2583 49.1389C67.1001 49.0658 66.9306 48.9983 66.7441 48.9983C65.6197 48.9983 65.6084 50.5005 65.6084 51.1925C65.6084 51.9295 65.6705 53.3136 66.7724 53.3136C66.9476 53.3136 67.1001 53.2742 67.2527 53.201V53.848C67.0493 53.9662 66.8402 54.0056 66.6085 54.0056C64.9699 54.0056 64.7495 52.4077 64.7495 51.2487C64.7495 50.0898 64.9021 48.3119 66.552 48.3119C66.8233 48.3119 67.021 48.3513 67.2527 48.475V49.1446L67.2583 49.1389Z" fill="#888888"/>
<path d="M70.6033 48.3794V49.0208H69.2472V50.7649H70.4621V51.4063H69.2472V53.2854H70.6033V53.9268H68.4448V48.3794H70.6033Z" fill="#888888"/>
<path d="M77.0055 51.1531C77.0055 52.1546 76.9886 54 75.429 54C73.8695 54 73.8525 52.1546 73.8525 51.1531C73.8525 50.1517 73.8695 48.3063 75.429 48.3063C76.9886 48.3063 77.0055 50.1517 77.0055 51.1531ZM74.7058 51.1531C74.7058 52.329 74.7905 53.3079 75.429 53.3079C76.0675 53.3079 76.1523 52.329 76.1523 51.1531C76.1523 49.9772 76.0619 48.9983 75.429 48.9983C74.7962 48.9983 74.7058 49.9772 74.7058 51.1531Z" fill="#888888"/>
<path d="M80.5766 48.3794V49.0208H79.2035V50.7649H80.441V51.4063H79.2035V53.9268H78.3955V48.3794H80.5766Z" fill="#888888"/>
<path d="M86.0632 48.3794V49.0208H85.1535V53.9268H84.3511V49.0208H83.4019V48.3794H86.0632Z" fill="#888888"/>
<path d="M87.8881 48.3794V50.5455H89.0973V48.3794H89.9053V53.9268H89.0973V51.1812H87.8881V53.9268H87.0801V48.3794H87.8881Z" fill="#888888"/>
<path d="M93.6124 48.3794V49.0208H92.2506V50.7649H93.4655V51.4063H92.2506V53.2854H93.6124V53.9268H91.4482V48.3794H93.6124Z" fill="#888888"/>
<path d="M97.816 48.3794V50.5455H99.0309V48.3794H99.8333V53.9268H99.0309V51.1812H97.816V53.9268H97.0137V48.3794H97.816Z" fill="#888888"/>
<path d="M102.178 48.3794H101.376V53.9268H102.178V48.3794Z" fill="#888888"/>
<path d="M106.631 51.0013V51.0913C106.631 52.1491 106.801 54.0057 105.185 54.0057C103.744 54.0057 103.574 52.7398 103.574 51.1757C103.574 49.6116 103.71 48.3176 105.111 48.3176C105.97 48.3176 106.383 48.7171 106.592 49.4485L105.829 49.7354C105.75 49.3697 105.637 49.0096 105.139 49.0096C104.478 49.0096 104.433 49.8311 104.433 51.1701C104.433 53.0942 104.789 53.3193 105.139 53.3193C105.467 53.3193 105.829 53.2743 105.829 51.9521V51.6483H105.151V51.0069H106.631V51.0013Z" fill="#888888"/>
<path d="M108.795 48.3794V50.5455H110.005V48.3794H110.813V53.9268H110.005V51.1812H108.795V53.9268H107.987V48.3794H108.795Z" fill="#888888"/>
<path d="M116.915 49.1389C116.751 49.0658 116.581 48.9983 116.401 48.9983C115.276 48.9983 115.265 50.5005 115.265 51.1925C115.265 51.9295 115.327 53.3136 116.429 53.3136C116.604 53.3136 116.757 53.2742 116.915 53.201V53.848C116.711 53.9662 116.502 54.0056 116.271 54.0056C114.626 54.0056 114.412 52.4077 114.412 51.2487C114.412 50.0898 114.564 48.3119 116.214 48.3119C116.485 48.3119 116.677 48.3513 116.915 48.475V49.1446V49.1389Z" fill="#888888"/>
<path d="M121.096 51.1531C121.096 52.1546 121.079 54 119.52 54C117.96 54 117.943 52.1546 117.943 51.1531C117.943 50.1517 117.96 48.3063 119.52 48.3063C121.079 48.3063 121.096 50.1517 121.096 51.1531ZM118.797 51.1531C118.797 52.329 118.881 53.3079 119.52 53.3079C120.158 53.3079 120.243 52.329 120.243 51.1531C120.243 49.9772 120.153 48.9983 119.52 48.9983C118.887 48.9983 118.797 49.9772 118.797 51.1531Z" fill="#888888"/>
<path d="M123.379 48.3794L124.238 52.3796H124.255L124.278 52.1546L124.521 50.8212L125.041 48.3794H125.752L126.312 53.9268H125.526L125.38 51.862L125.334 50.8324L125.317 50.101H125.3L125.165 50.8943L124.538 53.9268H123.984L123.204 50.101H123.187L122.95 53.9268H122.187L122.69 48.3794H123.379Z" fill="#888888"/>
<path d="M128.453 48.3794L129.312 52.3796H129.329L129.352 52.1546L129.595 50.8212L130.12 48.3794H130.827L131.386 53.9268H130.601L130.454 51.862L130.409 50.8324L130.392 50.101H130.375L130.239 50.8943L129.612 53.9268H129.058L128.278 50.101H128.261L128.03 53.9268H127.261L127.764 48.3794H128.453Z" fill="#888888"/>
<path d="M133.437 48.3794H132.635V53.9268H133.437V48.3794Z" fill="#888888"/>
<path d="M136.85 49.2347C136.641 49.094 136.443 48.9984 136.166 48.9984C135.726 48.9984 135.449 49.3303 135.449 49.7129C135.449 49.9548 135.511 50.1236 135.675 50.3149L136.285 50.9282C136.833 51.4345 137.144 51.8002 137.144 52.5541C137.144 53.308 136.613 54.0057 135.72 54.0057C135.409 54.0057 135.087 53.9269 134.839 53.7413V52.9986C135.082 53.1618 135.319 53.2855 135.635 53.2855C136.133 53.2855 136.342 52.9255 136.342 52.5148C136.342 51.412 134.646 51.1926 134.646 49.7354C134.646 48.9534 135.099 48.3176 136.003 48.3176C136.308 48.3176 136.596 48.3626 136.856 48.5033V49.2459L136.85 49.2347Z" fill="#888888"/>
<path d="M140.257 49.2347C140.048 49.094 139.851 48.9984 139.574 48.9984C139.133 48.9984 138.856 49.3303 138.856 49.7129C138.856 49.9548 138.918 50.1236 139.082 50.3149L139.692 50.9282C140.24 51.4345 140.551 51.8002 140.551 52.5541C140.551 53.308 140.02 54.0057 139.127 54.0057C138.817 54.0057 138.494 53.9269 138.246 53.7413V52.9986C138.489 53.1618 138.726 53.2855 139.043 53.2855C139.54 53.2855 139.749 52.9255 139.749 52.5148C139.749 51.412 138.054 51.1926 138.054 49.7354C138.054 48.9534 138.506 48.3176 139.41 48.3176C139.715 48.3176 140.003 48.3626 140.263 48.5033V49.2459L140.257 49.2347Z" fill="#888888"/>
<path d="M142.602 48.3794H141.8V53.9268H142.602V48.3794Z" fill="#888888"/>
<path d="M147.151 51.1531C147.151 52.1546 147.134 54 145.575 54C144.015 54 143.998 52.1546 143.998 51.1531C143.998 50.1517 144.015 48.3063 145.575 48.3063C147.134 48.3063 147.151 50.1517 147.151 51.1531ZM144.851 51.1531C144.851 52.329 144.936 53.3079 145.575 53.3079C146.213 53.3079 146.298 52.329 146.298 51.1531C146.298 49.9772 146.207 48.9983 145.575 48.9983C144.942 48.9983 144.851 49.9772 144.851 51.1531Z" fill="#888888"/>
<path d="M149.225 50.0279L149.343 51.8901V53.9268H148.541V48.3794H149.309L150.728 52.5934L150.745 52.5821L150.553 50.3598V48.3794H151.355V53.9268H150.609L149.191 49.6509L149.174 49.6678L149.225 50.0279Z" fill="#888888"/>
<path d="M155.062 48.3794V49.0208H153.705V50.7649H154.915V51.4063H153.705V53.2854H155.062V53.9268H152.897V48.3794H155.062Z" fill="#888888"/>
<path d="M156.254 48.3794H157.22C157.808 48.3794 158.723 48.4075 158.723 49.7972C158.723 50.3204 158.554 51.1137 157.887 51.2262L159.006 53.9268H158.169L157.079 51.215H157.062V53.9268H156.26V48.3794H156.254ZM157.87 49.9604C157.87 49.4315 157.796 48.9926 157.186 49.0039H157.056V50.838C157.661 50.8718 157.87 50.523 157.87 49.9604Z" fill="#888888"/>
</g>
<defs>
<clipPath id="clip0_46_223">
<rect width="159" height="54" fill="white"/>
</clipPath>
</defs>
</svg>
