<svg width="68" height="68" viewBox="0 0 68 68" fill="none" xmlns="http://www.w3.org/2000/svg">
<mask id="mask0_192_8180" style="mask-type:luminance" maskUnits="userSpaceOnUse" x="0" y="0" width="68" height="68">
<path d="M34.0027 0.536133C52.4848 0.536133 67.4691 15.519 67.4691 34.0009C67.4691 52.484 52.4848 67.4653 34.0027 67.4653C15.5208 67.4653 0.537964 52.484 0.537964 34.0009C0.537964 15.5192 15.5208 0.536133 34.0027 0.536133Z" fill="white"/>
</mask>
<g mask="url(#mask0_192_8180)">
<path d="M-16.1513 50.6914H84.2458V67.4194H-16.1513V50.6914Z" fill="#E42528"/>
<path d="M-16.1513 0.494141H84.2458V17.2249H-16.1513V0.494141Z" fill="#E42528"/>
<path d="M-16.1584 17.2285H84.2461V50.6915H-16.1584V17.2285Z" fill="#F0F0F0"/>
<path d="M44.6682 39.7912C43.8641 39.2494 43.8439 38.8805 44.6279 38.3905C45.4058 37.9006 46.0575 38.4424 46.9048 38.9207C47.7464 39.3993 48.8473 38.9207 48.8473 38.9207C48.8473 38.9207 46.464 37.1454 45.55 36.125C44.6366 35.1105 43.8323 35.1335 43.8323 35.1335C43.8323 35.1335 42.616 35.214 42.4286 34.7762C42.2412 34.3393 44.2531 34.2228 44.2531 34.2228C44.2531 34.2228 47.1784 34.302 47.2965 33.8237C47.412 33.3481 44.5958 32.6996 44.5958 32.6996C44.5958 32.6996 42.2555 32.2356 42.4286 31.7614C42.6044 31.2858 44.2674 31.6273 45.1925 31.8017C46.1205 31.976 46.2385 31.8637 46.161 31.6547C46.0832 31.4456 43.8612 30.1084 43.2213 29.7364C42.5872 29.3675 41.2383 28.1209 41.2383 28.1209C41.2383 28.1209 40.5869 27.3801 39.5581 26.9321C38.5234 26.4839 38.8288 26.0846 38.8288 26.0846C39.3995 25.4507 40.6158 26.1653 40.6158 26.1653C41.9646 26.6135 43.2327 26.4305 43.2327 26.4305C40.9099 25.504 39.7453 24.1552 39.7453 24.1552C40.0221 23.9951 41.8609 24.1552 41.8609 24.1552C39.7453 22.286 39.0133 21.8682 36.7132 21.3103C34.4104 20.7527 33.6276 18.0664 33.6276 18.0664C33.6276 18.0664 32.8221 19.6012 31.5942 20.5393C30.3607 21.4805 29.5552 22.4994 29.5552 22.4994C29.5552 22.4994 29.9385 22.3134 30.7714 22.1159C31.6056 21.9171 31.169 22.1951 30.9687 22.5411C30.7684 22.8856 28.8793 23.8482 28.8793 23.8482C28.8793 23.8482 27.6342 24.6305 27.7552 24.8424C27.8735 25.0528 28.1241 24.9348 28.1241 24.9348C28.1241 24.9348 28.7353 24.5891 29.0739 25.1696C29.4196 25.7547 28.8534 25.8196 28.8534 25.8196C28.8534 25.8196 27.4482 25.8613 27.1326 26.7995C26.8155 27.7376 25.9164 27.9769 25.9164 27.9769C25.9164 27.9769 23.664 29.1657 23.2131 29.6715C22.7678 30.1731 23.2923 30.2264 23.945 30.2148C24.5905 30.199 25.6094 29.4164 26.1527 30.199C26.696 30.9813 26.232 31.4829 25.5418 32.3188C24.8572 33.1503 24.007 33.1922 23.5704 33.3362C23.1368 33.4849 21.6395 34.9142 21.3209 35.3177C21.0024 35.7269 20.1551 35.7067 21.096 36.2371C22.0383 36.7703 22.8814 35.8511 22.8814 35.8511C22.8814 35.8511 23.7144 34.6838 24.5876 35.6753C25.4608 36.6668 23.8324 37.341 22.7905 37.9003C21.7457 38.4597 20.4198 39.7707 19.7859 40.4162C19.1517 41.0704 18.1951 40.8457 18.1951 40.8457C18.1951 40.8457 18.806 41.6641 20.4863 41.3356C22.165 41.0012 23.1306 40.0098 24.4824 39.5198C25.8297 39.0299 26.1367 40.0327 25.5531 40.7244C24.9708 41.4104 21.4778 42.2059 20.3003 42.8171C19.1216 43.4223 21.1851 43.6873 21.1851 43.6873C22.4809 43.9812 25.4581 42.5921 26.8227 41.9811C28.1888 41.3699 28.516 41.4623 29.0334 41.7043C29.5493 41.9406 30.2368 42.4824 30.078 43.6471C29.9152 44.8114 28.5548 46.4657 28.5548 46.4657C28.5548 46.4657 27.2823 47.9356 26.2678 48.0798C25.2462 48.2237 24.7056 48.8636 24.7056 48.8636C24.7056 48.8636 23.8438 49.8148 24.106 49.8551C24.3754 49.8956 24.4821 49.7111 25.1667 49.1115C25.8542 48.5179 26.8225 48.6389 27.811 48.4544C28.8052 48.267 29.6787 47.4199 29.9943 47.1288C30.3099 46.8406 31.1717 46.4833 31.5174 46.5754C31.8632 46.6648 31.8632 46.8808 32.3647 46.8808C32.8663 46.8808 33.2379 46.6904 33.2379 46.6904C33.2379 46.6904 33.8995 46.4023 33.9528 46.9959C34.0047 47.5955 34.4588 47.8318 34.4588 47.8318C34.4588 47.8318 34.7354 47.9904 35.8193 48.9041C36.9029 49.8148 36.3986 48.8752 36.1248 48.3331C35.8479 47.797 36.1364 47.9642 37.5311 47.9758C38.9202 47.9904 39.3124 48.6907 39.3124 48.6907C39.3124 48.6907 40.0559 49.8667 41.0185 49.8581C41.9868 49.8467 39.9865 48.3882 39.9865 48.3882C39.9865 48.3882 38.292 46.8519 37.5541 45.6357C36.8103 44.4222 37.4733 41.6641 37.4733 41.6641C38.2574 40.2231 39.485 41.3499 39.485 41.3499C40.2515 42.1167 42.7936 41.9725 43.7246 41.9063C44.6497 41.8428 45.9612 41.9841 47.7079 43.2956C49.4573 44.6097 49.8378 43.9698 49.8378 43.9698C50.4381 42.6099 45.4752 40.3333 44.6682 39.7912ZM36.1025 28.5321C35.826 29.365 35.258 29.0336 35.0073 28.9314C34.7537 28.8247 35.3242 28.0695 35.7479 27.8708C36.1717 27.6732 36.1025 28.5321 36.1025 28.5321ZM35.3906 24.6659C35.9583 24.6542 35.9065 25.2479 35.9065 25.2479C35.9065 25.2479 35.6153 25.4568 35.0592 25.3531C34.4998 25.2509 34.8228 24.6817 35.3906 24.6659ZM33.7607 28.8334L32.7403 28.476C32.7403 28.476 33.8412 27.6821 34.3559 28.0424C34.8747 28.4027 33.7607 28.8334 33.7607 28.8334ZM29.6853 24.5246C29.75 23.9697 30.2674 24.1253 30.2674 24.1253C30.2674 24.1253 30.9013 24.1786 30.2674 24.7723C29.6347 25.3689 29.6204 25.0765 29.6853 24.5246ZM30.3726 26.4281C30.3726 26.4281 31.2085 25.4741 31.5658 25.8732C31.9217 26.271 31.129 27.062 31.129 27.062C31.129 27.062 31.011 27.2593 30.015 27.5376C29.0238 27.8174 30.3726 26.4281 30.3726 26.4281ZM28.4155 34.713C28.257 35.52 25.8895 36.0618 25.6472 35.8487C25.4052 35.6353 24.9874 34.5532 24.9874 34.5532C24.9874 34.5532 28.5755 33.9044 28.4155 34.713ZM26.9084 30.1059C26.9084 30.1059 26.1404 29.365 27.0524 29.0193C27.9676 28.6763 28.5222 30.3291 28.5222 30.3291C27.463 31.047 26.9084 30.1059 26.9084 30.1059ZM29.7646 39.647C29.3813 39.7393 28.8292 38.471 28.9215 37.8719C29.0122 37.2783 29.913 38.0445 29.913 38.0445C30.217 38.6152 30.1493 39.5549 29.7646 39.647ZM29.6347 29.7068C29.0771 30.4101 28.9329 29.7861 28.9329 29.7861C28.9329 29.7861 28.8679 29.7068 28.7195 29.1793C28.5755 28.6477 29.0539 28.6894 29.8091 28.6593C30.5585 28.636 30.1866 29.0077 29.6347 29.7068ZM30.24 32.6998C30.1491 32.2632 31.0757 32.7532 31.0757 32.7532C31.0757 32.7532 31.5498 33.3224 31.2702 33.4175C30.9951 33.5054 30.3323 33.1364 30.24 32.6998ZM31.9866 39.2494C31.9101 39.8087 31.4448 39.1457 31.4448 39.1457C31.4448 39.1457 30.9132 38.552 31.1668 38.3214C31.4204 38.0966 31.8817 38.6268 31.8817 38.6268C31.8817 38.6268 32.0674 38.6962 31.9866 39.2494ZM32.2906 26.0564C31.8931 25.5665 32.9406 25.1183 33.6553 24.8143C34.3675 24.5073 34.1193 25.5665 34.1193 25.5665C34.1193 25.5665 32.69 26.5464 32.2906 26.0564ZM32.5717 32.8065C32.5717 32.8065 32.3064 32.4074 32.7156 32.0918C33.1293 31.7762 33.1913 32.4191 33.1913 32.4191C33.0357 33.7331 32.5717 32.8065 32.5717 32.8065ZM34.3445 38.2695C34.2667 38.6039 33.4308 39.6356 33.4308 39.6356C33.4308 39.6356 32.69 38.1369 33.0475 37.9813C33.4046 37.8198 34.425 37.9408 34.3445 38.2695ZM34.2408 34.063C33.7074 33.6377 33.8415 33.3755 34.1455 32.8063C34.4482 32.2356 34.9555 33.3337 34.9555 33.3337C35.4281 34.3282 34.768 34.4882 34.2408 34.063ZM35.8776 34.406C35.8776 34.406 35.2955 34.1279 35.5605 33.5876C35.8257 33.0428 36.0793 34.0099 36.0793 34.0099C36.2351 34.6206 35.8776 34.406 35.8776 34.406ZM39.584 31.5757C39.7569 30.8047 40.6563 31.0971 40.6563 31.0971C40.6563 31.0971 41.0422 31.1117 40.9733 31.7054C40.9099 32.3005 40.4688 32.2746 40.4688 32.2746C40.4688 32.2746 39.4111 32.3425 39.584 31.5757ZM36.5693 25.3418C36.5925 24.7192 37.5608 24.7985 37.5608 24.7985C37.9181 25.4988 37.3995 25.7137 37.2294 25.8058C37.0595 25.8964 36.5406 25.9643 36.5693 25.3418ZM37.5867 29.7745C37.5867 29.7745 36.7421 29.6562 36.9498 29.008C37.1629 28.358 38.2438 28.518 38.2438 28.518C38.2438 28.518 39.042 28.4647 38.9096 29.3912C38.7772 30.3178 37.5867 29.7745 37.5867 29.7745ZM40.8291 37.3185C40.0337 37.8603 39.5724 37.6988 39.0538 37.4511C38.5409 37.1975 38.7772 36.932 38.7772 36.932C38.7772 36.932 40.1377 35.9521 40.9215 36.2865C41.7023 36.6152 40.8291 37.3185 40.8291 37.3185ZM43.2216 38.5118C43.2216 38.5118 42.5874 38.431 42.054 38.31C41.5265 38.1947 41.8666 37.5837 42.5469 37.134C43.2213 36.6873 43.2732 36.7478 43.9246 37.1773C44.5761 37.5951 43.2216 38.5118 43.2216 38.5118Z" fill="#1EA451"/>
</g>
</svg>
