<svg width="59" height="59" viewBox="0 0 59 59" fill="none" xmlns="http://www.w3.org/2000/svg">
<path d="M29.5001 36.5293C28.547 36.5293 27.7716 35.7539 27.7716 34.8008C27.7716 34.1045 28.1858 33.4793 28.827 33.2077C29.601 32.8799 30.5273 33.1596 31.3689 33.975C32.0546 34.6392 33.1489 34.6219 33.8131 33.9364C34.4774 33.2508 34.46 32.1565 33.7745 31.4923C32.9941 30.7362 32.1266 30.2019 31.2286 29.9003V27.8867C31.2286 26.9321 30.4547 26.1582 29.5001 26.1582C28.5455 26.1582 27.7716 26.9321 27.7716 27.8867V29.9115C27.6735 29.9464 27.5758 29.9833 27.4789 30.0243C25.5566 30.8384 24.3145 32.7133 24.3145 34.8008C24.3145 37.6601 26.6408 39.9863 29.5001 39.9863C30.4532 39.9863 31.2286 40.7617 31.2286 41.7148C31.2286 42.4392 30.7717 43.0924 30.0917 43.34C29.2038 43.6632 28.1703 43.2248 27.2562 42.1364C26.6423 41.4053 25.552 41.3105 24.821 41.9245C24.0899 42.5384 23.9951 43.6288 24.6091 44.3597C25.5435 45.4723 26.6312 46.2353 27.7717 46.6192V48.6289C27.7717 49.5835 28.5456 50.3574 29.5002 50.3574C30.4548 50.3574 31.2287 49.5835 31.2287 48.6289V46.6039C31.2442 46.5985 31.2596 46.5938 31.2749 46.5882C33.3149 45.8452 34.6856 43.8867 34.6856 41.7148C34.6856 38.8555 32.3594 36.5293 29.5001 36.5293Z" fill="#B0DDF9"/>
<path d="M45.5082 25.9576C43.4538 23.4301 41.1054 21.4165 38.5273 19.9685C38.9496 19.469 39.2827 18.8832 39.4978 18.2304C40.3421 15.6597 39.1089 12.6059 35.9615 11.6111L40.3737 3.91751C40.9304 2.94654 40.4303 1.70985 39.3569 1.39779C36.1668 0.470272 32.8506 0 29.5 0C26.1494 0 22.8332 0.470272 19.6431 1.39779C18.5684 1.71019 18.0702 2.9477 18.6263 3.91751L23.0385 11.6112C19.9035 12.601 18.6548 15.6502 19.5026 18.2318C19.7171 18.8829 20.0501 19.4683 20.4736 19.968C17.8952 21.4161 15.5465 23.4299 13.4919 25.9576C9.3848 31.0103 7.0293 37.3835 7.0293 43.4434C7.0293 56.0144 17.0601 59 29.5 59C41.9487 59 51.9707 56.0093 51.9707 43.4434C51.9707 37.3835 49.6152 31.0103 45.5082 25.9576ZM22.7583 4.17356C24.9636 3.69753 27.2227 3.45703 29.5 3.45703C31.7773 3.45703 34.0364 3.69753 36.2417 4.17356L32.4351 10.8113C30.4855 10.5391 28.5151 10.5392 26.565 10.8114L22.7583 4.17356ZM23.8876 14.9685C26.8624 13.9927 29.9747 13.8077 33.0004 14.4126C33.0039 14.4133 33.0076 14.414 33.0112 14.4147C33.7164 14.5562 34.4169 14.7403 35.11 14.9677C36.0158 15.2663 36.5109 16.2461 36.2139 17.1503C35.9981 17.8052 35.4282 18.2562 34.7579 18.3293C33.0345 17.7897 31.2766 17.5156 29.5 17.5156C27.727 17.5156 25.9726 17.7885 24.2525 18.326C23.5718 18.2559 23.0006 17.8016 22.7866 17.1519C22.4891 16.2461 22.9842 15.2661 23.8876 14.9685ZM29.5 55.566C15.995 55.566 10.4863 52.0375 10.4863 43.4434C10.4863 38.2415 12.6127 32.5199 16.1743 28.1382C19.9304 23.5174 24.6628 20.9727 29.5 20.9727C34.8245 20.9727 39.4817 24.0243 42.8257 28.1382C46.3873 32.5199 48.5137 38.2415 48.5137 43.4434C48.5137 52.0375 43.005 55.566 29.5 55.566Z" fill="#B0DDF9"/>
</svg>
