<svg width="71" height="71" viewBox="0 0 71 71" fill="none" xmlns="http://www.w3.org/2000/svg">
<path fill-rule="evenodd" clip-rule="evenodd" d="M35.5 0.0625C15.9284 0.0625 0.0625 15.9284 0.0625 35.5C0.0625 55.0716 15.9284 70.9375 35.5 70.9375C55.0716 70.9375 70.9375 55.0716 70.9375 35.5C70.9375 15.9284 55.0716 0.0625 35.5 0.0625Z" fill="#E92B2B"/>
<path fill-rule="evenodd" clip-rule="evenodd" d="M35.5024 18.3018L39.3636 30.1855H51.859L41.7501 37.5301L45.6114 49.414L35.5024 42.0694L25.3935 49.414L29.2548 37.5301L19.1458 30.1855H31.6411L35.5024 18.3018ZM30.9831 32.2105H25.378L29.9127 35.5051L30.9831 32.2105ZM31.6353 36.7566L33.1124 32.2105H37.8925L39.3695 36.7566L35.5024 39.5663L31.6353 36.7566ZM30.9773 38.7816L29.2453 44.1124L33.7799 40.8179L30.9773 38.7816ZM37.2249 40.8179L41.7596 44.1124L40.0275 38.7816L37.2249 40.8179ZM41.0922 35.5051L45.6267 32.2105H40.0216L41.0922 35.5051ZM37.2345 30.1855H33.7704L35.5024 24.8548L37.2345 30.1855Z" fill="#32AB45"/>
</svg>
