<svg width="70" height="70" viewBox="0 0 70 70" fill="none" xmlns="http://www.w3.org/2000/svg">
<g clip-path="url(#clip0_192_10664)">
<path d="M35 70C54.33 70 70 54.33 70 35C70 15.67 54.33 0 35 0C15.67 0 0 15.67 0 35C0 54.33 15.67 70 35 70Z" fill="#F0F0F0"/>
<path d="M0 35.0002C0 48.2667 7.38131 59.8084 18.2608 65.7446V4.25586C7.38131 10.1921 0 21.7337 0 35.0002Z" fill="#F0F0F0"/>
<path d="M35 0C28.9365 0 23.2334 1.5426 18.2608 4.25564V65.7442C23.2334 68.4574 28.9365 70 35 70C54.3298 70 70 54.3298 70 35C70 15.6702 54.3298 0 35 0Z" fill="#496E2D"/>
<path d="M49.9643 40.7879C45.5364 43.9872 39.3531 42.9913 36.1539 38.5636C32.9544 34.1355 33.9504 27.9524 38.3783 24.7532C39.7589 23.7557 41.3101 23.166 42.8883 22.9611C39.8521 22.5071 36.6427 23.1912 33.9579 25.1311C28.5083 29.0689 27.2824 36.6788 31.22 42.1287C35.1576 47.5781 42.7677 48.8042 48.2176 44.8662C50.9026 42.9263 52.5597 40.0944 53.0817 37.069C52.3919 38.5026 51.345 39.7902 49.9643 40.7879Z" fill="#F0F0F0"/>
<path d="M49.7747 22.8262L52.2689 25.5142L55.5961 23.9731L53.8102 27.1756L56.3043 29.8639L52.7065 29.155L50.9206 32.3578L50.483 28.717L46.8851 28.0081L50.2124 26.467L49.7747 22.8262Z" fill="#F0F0F0"/>
</g>
<defs>
<clipPath id="clip0_192_10664">
<rect width="70" height="70" fill="white"/>
</clipPath>
</defs>
</svg>
