<svg width="61" height="51" viewBox="0 0 61 51" fill="none" xmlns="http://www.w3.org/2000/svg">
<path d="M52.0645 26.7379H46.0934C45.2807 26.7379 44.4939 26.8489 43.7451 27.0531C42.268 24.1494 39.2523 22.1543 35.7773 22.1543H25.2227C21.7477 22.1543 18.732 24.1494 17.2549 27.0531C16.5061 26.8489 15.7193 26.7379 14.9066 26.7379H8.93555C4.00849 26.7379 0 30.7464 0 35.6734V45.2187C0 48.175 2.40509 50.5801 5.36133 50.5801H55.6387C58.5949 50.5801 61 48.175 61 45.2187V35.6734C61 30.7464 56.9915 26.7379 52.0645 26.7379ZM16.2871 31.0901V47.006H5.36133C4.37592 47.006 3.57422 46.2043 3.57422 45.2189V35.6735C3.57422 32.7173 5.97931 30.3122 8.93555 30.3122H14.9066C15.3918 30.3122 15.8615 30.3781 16.3088 30.4995C16.2959 30.695 16.2871 30.8916 16.2871 31.0901ZM41.1387 47.006H19.8613V31.09C19.8613 28.1337 22.2664 25.7286 25.2227 25.7286H35.7773C38.7336 25.7286 41.1387 28.1337 41.1387 31.09V47.006ZM57.4258 45.2189C57.4258 46.2043 56.6241 47.006 55.6387 47.006H44.7129V31.09C44.7129 30.8914 44.7041 30.6948 44.6912 30.4994C45.1385 30.3781 45.6082 30.3121 46.0934 30.3121H52.0645C55.0207 30.3121 57.4258 32.7172 57.4258 35.6734V45.2189Z" fill="#B0DDF9"/>
<path d="M11.9212 9.86182C7.5429 9.86182 3.98096 13.4238 3.98096 17.8021C3.98084 22.1804 7.5429 25.7423 11.9212 25.7423C16.2994 25.7423 19.8614 22.1804 19.8614 17.8021C19.8614 13.4238 16.2995 9.86182 11.9212 9.86182ZM11.9211 22.1681C9.51361 22.1681 7.55506 20.2095 7.55506 17.8021C7.55506 15.3946 9.51361 13.436 11.9211 13.436C14.3286 13.436 16.2871 15.3946 16.2871 17.8021C16.2871 20.2095 14.3286 22.1681 11.9211 22.1681Z" fill="#B0DDF9"/>
<path d="M30.5001 0C24.6508 0 19.8921 4.75871 19.8921 10.608C19.8921 16.4574 24.6508 21.2161 30.5001 21.2161C36.3495 21.2161 41.1082 16.4574 41.1082 10.608C41.1082 4.75883 36.3495 0 30.5001 0ZM30.5001 17.6419C26.6216 17.6419 23.4663 14.4865 23.4663 10.608C23.4663 6.72966 26.6216 3.57422 30.5001 3.57422C34.3786 3.57422 37.534 6.72954 37.534 10.608C37.534 14.4865 34.3786 17.6419 30.5001 17.6419Z" fill="#B0DDF9"/>
<path d="M49.0789 9.86182C44.7007 9.86182 41.1387 13.4238 41.1387 17.8021C41.1388 22.1804 44.7007 25.7423 49.0789 25.7423C53.4572 25.7423 57.0192 22.1804 57.0192 17.8021C57.0192 13.4238 53.4572 9.86182 49.0789 9.86182ZM49.0789 22.1681C46.6716 22.1681 44.7129 20.2095 44.7129 17.8021C44.713 15.3946 46.6716 13.436 49.0789 13.436C51.4864 13.436 53.4449 15.3946 53.4449 17.8021C53.4449 20.2095 51.4864 22.1681 49.0789 22.1681Z" fill="#B0DDF9"/>
</svg>
