<svg width="70" height="70" viewBox="0 0 70 70" fill="none" xmlns="http://www.w3.org/2000/svg">
<g clip-path="url(#clip0_192_10658)">
<path d="M35 70C54.33 70 70 54.33 70 35C70 15.67 54.33 0 35 0C15.67 0 0 15.67 0 35C0 54.33 15.67 70 35 70Z" fill="#F0F0F0"/>
<path d="M70 35C70 15.6702 54.3298 0 35 0C28.1531 0 21.7664 1.96807 16.3718 5.36635L24.0435 8.62586L13.6957 13.0225L24.0435 17.4189L13.6957 21.8153L24.0435 26.2114L13.6957 30.6071L24.0435 35.0025L13.6957 39.3988L24.0435 43.7948L13.6957 48.1905L24.0435 52.5865L13.6957 56.9829L24.0435 61.3785L16.3752 64.6363C21.7692 68.0329 28.1545 70 35 70C54.3298 70 70 54.3298 70 35Z" fill="#751A46"/>
</g>
<defs>
<clipPath id="clip0_192_10658">
<rect width="70" height="70" fill="white"/>
</clipPath>
</defs>
</svg>
