<svg width="62" height="54" viewBox="0 0 62 54" fill="none" xmlns="http://www.w3.org/2000/svg">
<path d="M22.9973 49.8668H8.3948C5.96105 49.8668 3.98105 47.8951 3.98105 45.4737V18.1868H57.9979V25.4283C57.9979 26.4533 58.8291 27.2845 59.8542 27.2845C60.8792 27.2845 61.7104 26.4533 61.7104 25.4283V8.51578C61.7104 4.04634 58.0742 0.410156 53.6048 0.410156H8.3948C3.91506 0.410156 0.268555 4.04634 0.268555 8.51578V45.4758C0.268555 49.9452 3.91506 53.5814 8.3948 53.5814H22.9973C24.0224 53.5814 24.8536 52.7502 24.8536 51.7252C24.8536 50.7001 24.0224 49.8668 22.9973 49.8668ZM8.3948 4.12059H53.6048C56.0282 4.12059 57.9979 6.09234 57.9979 8.51372V14.4723H3.98105V8.51578C3.98105 6.09234 5.96105 4.12059 8.3948 4.12059Z" fill="#0076C0"/>
<path d="M10.9851 11.067C11.9689 11.067 12.7671 10.2689 12.7671 9.28504C12.7671 8.30123 11.9689 7.50098 10.9851 7.50098C10.0013 7.50098 9.20312 8.29916 9.20312 9.28298C9.20312 10.2668 9.99925 11.067 10.9851 11.067Z" fill="#0076C0"/>
<path d="M17.2654 11.067C18.2492 11.067 19.0474 10.2689 19.0474 9.28504C19.0474 8.30123 18.2492 7.50098 17.2654 7.50098C16.2816 7.50098 15.4834 8.29916 15.4834 9.28298C15.4834 10.2668 16.2795 11.067 17.2654 11.067Z" fill="#0076C0"/>
<path d="M23.5457 11.0672C24.5295 11.0672 25.3277 10.269 25.3277 9.28517C25.3277 8.30136 24.5295 7.50317 23.5457 7.50317C22.5619 7.50317 21.7637 8.30136 21.7637 9.28517C21.7637 10.269 22.5598 11.0672 23.5457 11.0672Z" fill="#0076C0"/>
<path d="M60.6684 33.2988C58.6389 31.4673 55.6998 30.4175 52.6081 30.4175C49.9001 30.4175 47.3013 31.2322 45.342 32.6491C43.3826 31.2301 40.7838 30.4175 38.0758 30.4175C34.9841 30.4175 32.045 31.4673 30.0176 33.2967C29.3493 33.8969 28.9678 34.7797 28.9678 35.716V48.881C28.9678 50.038 29.5556 51.0817 30.5415 51.6757C31.5541 52.2862 32.7937 52.3171 33.8497 51.754C35.081 51.1023 36.5433 50.7579 38.0778 50.7579C40.4621 50.7579 42.671 51.5973 43.991 53.0019C44.3416 53.3752 44.8325 53.5876 45.344 53.5876C45.8555 53.5876 46.3464 53.3752 46.697 53.0019C48.017 51.5952 50.226 50.7579 52.6102 50.7579C54.1447 50.7579 55.607 51.1023 56.8383 51.754C57.8985 52.315 59.1339 52.2862 60.1466 51.6757C61.1325 51.0817 61.7203 50.038 61.7203 48.881V35.716C61.7182 34.7797 61.3346 33.899 60.6684 33.2988ZM32.6782 48.1942V35.9037C34.0312 34.7755 35.9823 34.132 38.0758 34.132C40.1981 34.132 42.1451 34.825 43.4857 35.9635V48.2272C41.8605 47.4785 40.0001 47.0515 38.0758 47.0515C36.1638 47.0474 34.3117 47.4434 32.6782 48.1942ZM58.0057 48.1942C54.7263 46.6844 50.4673 46.7855 47.1982 48.2478V35.9615C48.5388 34.823 50.4858 34.13 52.6081 34.13C54.6995 34.13 56.6507 34.7735 58.0057 35.9017V48.1942Z" fill="#0076C0"/>
</svg>
