<svg width="76" height="66" viewBox="0 0 76 66" fill="none" xmlns="http://www.w3.org/2000/svg">
<path d="M28.3 60.7175H10.6C7.65 60.7175 5.25 58.3275 5.25 55.3925V22.3175H70.725V31.095C70.725 32.3375 71.7325 33.345 72.975 33.345C74.2175 33.345 75.225 32.3375 75.225 31.095V10.595C75.225 5.17752 70.8175 0.77002 65.4 0.77002H10.6C5.17 0.77002 0.75 5.17752 0.75 10.595V55.395C0.75 60.8125 5.17 65.22 10.6 65.22H28.3C29.5425 65.22 30.55 64.2125 30.55 62.97C30.55 61.7275 29.5425 60.7175 28.3 60.7175ZM10.6 5.26752H65.4C68.3375 5.26752 70.725 7.65752 70.725 10.5925V17.815H5.25V10.595C5.25 7.65752 7.65 5.26752 10.6 5.26752Z" fill="white"/>
<path d="M13.7401 13.6877C14.9326 13.6877 15.9001 12.7202 15.9001 11.5277C15.9001 10.3352 14.9326 9.36523 13.7401 9.36523C12.5476 9.36523 11.5801 10.3327 11.5801 11.5252C11.5801 12.7177 12.5451 13.6877 13.7401 13.6877Z" fill="white"/>
<path d="M21.3534 13.6877C22.5459 13.6877 23.5134 12.7202 23.5134 11.5277C23.5134 10.3352 22.5459 9.36523 21.3534 9.36523C20.1609 9.36523 19.1934 10.3327 19.1934 11.5252C19.1934 12.7177 20.1584 13.6877 21.3534 13.6877Z" fill="white"/>
<path d="M28.9647 13.6877C30.1572 13.6877 31.1247 12.7202 31.1247 11.5277C31.1247 10.3352 30.1572 9.36768 28.9647 9.36768C27.7722 9.36768 26.8047 10.3352 26.8047 11.5277C26.8047 12.7202 27.7697 13.6877 28.9647 13.6877Z" fill="white"/>
<path d="M73.9621 40.6351C71.5021 38.4151 67.9396 37.1426 64.1921 37.1426C60.9096 37.1426 57.7596 38.1301 55.3846 39.8476C53.0096 38.1276 49.8596 37.1426 46.5771 37.1426C42.8296 37.1426 39.2671 38.4151 36.8096 40.6326C35.9996 41.3601 35.5371 42.4301 35.5371 43.5651V59.5226C35.5371 60.9251 36.2496 62.1901 37.4446 62.9101C38.6721 63.6501 40.1746 63.6876 41.4546 63.0051C42.9471 62.2151 44.7196 61.7976 46.5796 61.7976C49.4696 61.7976 52.1471 62.8151 53.7471 64.5176C54.1721 64.9701 54.7671 65.2276 55.3871 65.2276C56.0071 65.2276 56.6021 64.9701 57.0271 64.5176C58.6271 62.8126 61.3046 61.7976 64.1946 61.7976C66.0546 61.7976 67.8271 62.2151 69.3196 63.0051C70.6046 63.6851 72.1021 63.6501 73.3296 62.9101C74.5246 62.1901 75.2371 60.9251 75.2371 59.5226V43.5651C75.2346 42.4301 74.7696 41.3626 73.9621 40.6351ZM40.0346 58.6901V43.7926C41.6746 42.4251 44.0396 41.6451 46.5771 41.6451C49.1496 41.6451 51.5096 42.4851 53.1346 43.8651V58.7301C51.1646 57.8226 48.9096 57.3051 46.5771 57.3051C44.2596 57.3001 42.0146 57.7801 40.0346 58.6901ZM70.7346 58.6901C66.7596 56.8601 61.5971 56.9826 57.6346 58.7551V43.8626C59.2596 42.4826 61.6196 41.6426 64.1921 41.6426C66.7271 41.6426 69.0921 42.4226 70.7346 43.7901V58.6901Z" fill="white"/>
</svg>
