<svg width="70" height="70" viewBox="0 0 70 70" fill="none" xmlns="http://www.w3.org/2000/svg">
<g clip-path="url(#clip0_146_18333)">
<mask id="mask0_146_18333" style="mask-type:luminance" maskUnits="userSpaceOnUse" x="0" y="0" width="70" height="70">
<path d="M35 70C54.33 70 70 54.33 70 35C70 15.67 54.33 0 35 0C15.67 0 0 15.67 0 35C0 54.33 15.67 70 35 70Z" fill="white"/>
</mask>
<g mask="url(#mask0_146_18333)">
<path d="M-17.5 0H87.5V70H-17.5V0Z" fill="#006C35"/>
</g>
<mask id="mask1_146_18333" style="mask-type:luminance" maskUnits="userSpaceOnUse" x="0" y="0" width="70" height="70">
<path d="M35 70C54.33 70 70 54.33 70 35C70 15.67 54.33 0 35 0C15.67 0 0 15.67 0 35C0 54.33 15.67 70 35 70Z" fill="white"/>
</mask>
<g mask="url(#mask1_146_18333)">
<path fill-rule="evenodd" clip-rule="evenodd" d="M48.5617 51.2634C48.5631 51.2627 48.5644 51.2642 48.5658 51.2634C49.8441 51.3262 51.0452 51.2757 52.3242 51.3379C52.5265 51.5101 52.4253 51.9046 52.2934 51.977C52.2873 51.9798 52.2777 51.9839 52.2716 51.9852C52.2668 51.9866 52.2586 51.9852 52.2538 51.9852C52.2491 51.9852 52.2415 51.9866 52.2367 51.9852C51.8204 51.975 51.5805 51.9654 51.1649 51.9551C51.1642 51.9339 51.1615 51.9121 51.156 51.8936C51.0576 51.6017 50.3439 51.6209 50.1757 51.8498C50.1737 51.8533 50.1689 51.8594 50.1668 51.8629C50.1641 51.8676 50.1607 51.8759 50.1586 51.8806C50.1559 51.8861 50.1518 51.8964 50.1498 51.9025C50.147 51.9107 50.1463 51.9237 50.145 51.9332C50.1443 51.9434 50.1402 51.9572 50.1409 51.9681C49.5796 52.0351 49.0745 51.9496 48.5132 51.9285C48.3484 51.7233 48.3676 51.3529 48.5617 51.2634ZM47.9662 48.1004C47.9655 48.1011 47.9628 48.1038 47.9621 48.1051C47.1323 48.3177 47.1582 49.1791 47.6907 49.5571C38.9277 49.5571 25.4794 49.4087 22.596 49.4087C20.9819 49.4087 15.8775 49.216 15.7792 49.216C16.8743 50.8169 18.4602 51.143 20.5349 51.1758C24.4273 51.1758 42.4619 51.1279 47.5943 51.1279C47.2292 51.776 47.6271 52.8184 47.9135 53.0092C47.9197 53.0133 47.9293 53.0194 47.9354 53.0222C47.9463 53.0277 47.96 53.0331 47.9702 53.0352C47.9737 53.0366 47.9805 53.0352 47.9833 53.0352C48.3237 53.1159 48.4727 52.8698 48.5876 52.69C49.1385 52.7385 52.2407 52.7836 52.5251 52.6852C52.5258 52.6852 52.5285 52.6818 52.5292 52.6811C52.7213 52.9641 52.912 53.2307 53.2771 53.1843C53.9169 53.0468 54.4207 52.9778 54.4364 51.679C54.4364 51.679 54.3715 49.4668 52.9188 49.6056C52.575 49.6576 51.6104 49.7545 51.6104 49.7545C50.4942 49.6214 49.6759 49.6077 48.4208 49.5619C48.537 49.4149 48.7414 48.8195 48.4912 48.6035C48.4256 48.5496 48.3286 48.5195 48.1939 48.5295C48.1925 48.5295 48.1905 48.5295 48.1891 48.5295C48.1871 48.529 48.1823 48.5295 48.1802 48.5295C48.1795 48.529 48.1768 48.5255 48.1761 48.5249C48.1727 48.5235 48.1665 48.5229 48.1631 48.5208C48.1562 48.516 48.1473 48.5064 48.1412 48.4989C48.1398 48.4969 48.1338 48.4921 48.1324 48.4901C48.0688 48.3978 48.0346 48.1715 47.9922 48.1142C47.9915 48.1134 47.9888 48.11 47.9881 48.1093C47.9874 48.1093 47.984 48.1052 47.9833 48.1052C47.9819 48.1038 47.9765 48.1011 47.9751 48.1004C47.9744 48.1004 47.971 48.1004 47.9704 48.1004C47.9697 48.1011 47.9669 48.1004 47.9662 48.1004ZM55.4618 32.9247C55.358 32.9281 55.2486 32.9424 55.09 32.9554C54.9184 32.9916 54.8589 33.0669 54.8275 33.2747C54.8398 33.5897 55.0326 33.5741 55.2301 33.6991C55.3443 33.8441 55.4188 33.9759 55.2213 34.2153C55.0339 34.3868 54.9007 34.4812 54.714 34.6528C54.6258 34.8031 54.5705 35.0349 54.8405 35.1073C55.3396 35.2482 56.4941 34.4975 56.4941 34.4818C56.6815 34.3416 56.6192 34.075 56.6035 34.075C56.4948 33.9506 56.2487 34.0252 56.0832 34.0052C56.0046 34.0052 55.7456 33.9671 55.8686 33.738C55.9712 33.5959 56.0095 33.5111 56.0785 33.3353C56.1564 33.1646 56.0881 33.049 55.8078 32.9552C55.6649 32.9294 55.5658 32.9212 55.4618 32.9247ZM37.5196 32.2553C37.4588 32.2519 37.3931 32.2616 37.3268 32.2944C37.3138 32.2944 36.7382 32.6841 36.553 32.9553C36.4395 33.0415 36.4524 33.116 36.4873 33.2658C36.5755 33.4688 36.7307 33.4053 36.907 33.3095C37.1408 33.2774 37.2543 33.4312 37.2352 33.7122C37.1272 34.0629 37.2831 34.1935 37.2831 34.2154C37.2831 34.2373 37.5087 34.4306 37.7732 34.2768C38.3317 34.0635 38.6796 33.8557 39.4624 33.6855C39.6675 33.6821 39.6558 33.1325 39.3311 33.1127C38.9073 33.1339 38.5162 33.1557 38.0925 33.4886C37.832 33.5495 37.7876 33.3909 37.7294 33.2479C37.6632 32.8953 37.8785 32.6464 37.8347 32.3819C37.8463 32.3934 37.7028 32.265 37.5196 32.2553ZM9.49712 30.5347C9.46212 30.5354 9.39247 30.6394 9.30028 30.7577C8.47778 32.0681 8.40463 34.0239 8.85858 34.6077C9.09987 34.8832 9.49712 35.0048 9.79028 34.918C10.3071 34.6945 10.534 33.6478 10.4117 33.2644C10.2395 32.9951 10.1027 32.952 9.93049 33.1816C9.56684 33.92 9.41508 33.4147 9.38365 33.0019C9.32758 32.2198 9.40339 31.4994 9.48823 30.9285C9.53387 30.6359 9.53191 30.5334 9.49712 30.5347ZM31.3289 29.5853C31.3454 29.5838 31.3597 29.5853 31.3769 29.5853H31.3858C31.9429 29.7363 32.764 29.7521 33.4769 29.826C34.0579 29.8628 34.3444 30.3174 33.8008 30.5081C33.2643 30.692 32.7489 30.8356 32.7461 31.6107C32.8172 31.9949 32.8021 32.1965 32.7421 32.2889C32.7372 32.2958 32.7296 32.3054 32.7242 32.3107C32.7235 32.3115 32.7209 32.3141 32.7202 32.3149C32.7194 32.3163 32.7167 32.3191 32.716 32.3197C32.7145 32.3204 32.7118 32.3231 32.7112 32.3238L32.707 32.3285C32.7058 32.3292 32.6995 32.332 32.6983 32.3327C32.6908 32.3374 32.6804 32.3429 32.6722 32.3457C32.6647 32.3485 32.6537 32.3492 32.6456 32.3504C32.5184 32.3689 32.3332 32.2473 32.1951 32.1754C31.8641 31.9376 30.9358 31.3627 30.8039 30.1274C30.7848 29.8491 30.9933 29.6085 31.3289 29.5853ZM22.3902 28.3644C22.1736 28.3794 21.9795 28.4956 22.067 28.8019C22.0539 29.0241 22.6808 29.2941 22.7184 29.8081C22.8087 30.02 22.5845 30.6989 22.7711 30.7617C22.9427 30.8329 23.1806 30.2929 23.2702 29.791C23.32 29.5155 23.0548 28.5537 22.605 28.3822C22.5358 28.3672 22.4627 28.3597 22.3902 28.3644ZM52.2537 27.017C52.0083 27.0472 51.7745 27.2795 51.8819 27.6513C51.8149 27.8694 52.2155 28.6329 52.3194 29.0384C52.4131 29.3268 52.1991 30.1424 52.3939 30.2284C52.5736 30.3241 53.0454 29.7438 53.0282 29.0165C53.0802 28.6425 52.8949 27.2637 52.4246 27.0299C52.3706 27.015 52.3105 27.0101 52.2537 27.017ZM17.0918 26.4667C17.2271 26.4681 17.37 26.5351 17.4458 26.7251C17.5143 26.8987 17.4493 27.0813 17.3673 27.1716C17.3665 27.1723 17.368 27.1749 17.3673 27.1756C17.3658 27.1776 17.3646 27.1825 17.3632 27.1845C17.3051 27.2591 17.1014 27.2283 16.9558 27.2283C16.7808 27.2201 16.694 27.1914 16.5887 27.0484C16.5381 26.8899 16.6919 26.7341 16.759 26.6158C16.7597 26.6144 16.763 26.6123 16.7637 26.6109C16.7712 26.6001 16.7827 26.5871 16.7944 26.5761C16.8464 26.5283 16.9373 26.4832 17.0351 26.4716C17.0535 26.4688 17.072 26.4667 17.0918 26.4667ZM12.6114 25.8454C11.2293 25.8706 9.20452 27.6582 9.15111 28.6501C10.6099 27.9494 12.0427 27.2747 13.5261 26.5501C13.2868 26.1926 13.5118 25.8706 12.6114 25.8454ZM35.9787 25.3642C36.0881 25.3532 36.231 25.3901 36.3684 25.4694C36.5673 25.5849 36.6904 25.7585 36.6746 25.885C36.6739 25.8885 36.6753 25.8946 36.6746 25.898C36.6739 25.9015 36.6671 25.9083 36.6657 25.911C36.665 25.9145 36.663 25.9213 36.6616 25.9248C36.6609 25.9267 36.6582 25.9309 36.6568 25.933C36.6561 25.9349 36.6541 25.9398 36.6527 25.9417C36.6458 25.9527 36.6356 25.9636 36.6267 25.9725C36.531 26.0621 36.3096 26.0492 36.1017 25.9288C35.9042 25.8147 35.7818 25.6389 35.7955 25.5131C35.7955 25.5098 35.7989 25.5035 35.7996 25.5001C35.803 25.4843 35.8092 25.47 35.8174 25.4563C35.8201 25.4517 35.8222 25.4434 35.8256 25.4385C35.8263 25.4378 35.8297 25.4351 35.8303 25.4344C35.8358 25.4276 35.8447 25.4181 35.8522 25.4126C35.8838 25.3873 35.9288 25.3695 35.9787 25.3642ZM52.7733 25.0831C52.7589 25.0803 52.7426 25.081 52.7254 25.0872C52.7254 25.0872 50.0567 26.9856 49.9911 27.0519C49.7265 27.287 49.8584 28.1141 49.9911 28.0184C50.1824 28.0923 52.8683 26.2719 52.817 26.0586C52.9346 26.0653 52.9907 25.1222 52.7733 25.0831ZM33.4578 24.2909C33.3538 24.3093 33.2534 24.3947 33.217 24.5363C33.1939 24.6285 33.2615 24.7823 33.1775 24.8295C33.1295 24.878 32.9424 24.8493 32.9505 24.593C32.9505 24.5109 32.8903 24.4214 32.8541 24.3701C32.8172 24.3461 32.7974 24.3394 32.7318 24.3394C32.6512 24.3429 32.6484 24.3641 32.6046 24.4309C32.5862 24.5 32.5609 24.5678 32.5609 24.6456C32.5506 24.7366 32.5185 24.768 32.4516 24.7809C32.3763 24.7809 32.394 24.7891 32.3334 24.7503C32.2971 24.7112 32.2505 24.6955 32.2505 24.6278C32.2505 24.5581 32.2362 24.4466 32.215 24.4003C32.1836 24.3584 32.1289 24.3407 32.0708 24.3263C31.7563 24.3271 31.7377 24.6846 31.7556 24.8206C31.7323 24.8459 31.7159 25.4912 32.1453 25.669C32.7209 25.9438 34.0934 25.7824 33.7592 24.8951C33.7592 24.8123 33.7373 24.5369 33.729 24.4617C33.6702 24.325 33.5616 24.2731 33.4578 24.2909ZM28.6712 23.5389C28.6637 23.5416 28.6561 23.5479 28.6493 23.5519C28.6458 23.554 28.6397 23.5581 28.6364 23.5608C28.5802 23.6025 28.5133 23.7003 28.3649 23.8055C28.1147 24.0906 28.0695 24.2888 28.0853 24.8597C28.0989 24.9204 28.5604 26.2029 28.9515 27.1046C29.2146 28.041 29.4587 29.1143 29.2795 30.1274C28.663 31.4672 27.423 32.6684 26.2259 33.3212C25.6162 33.5166 25.0892 33.4498 24.9483 33.3164C24.947 33.3157 24.9449 33.3136 24.9442 33.3122C24.5935 33.0772 24.586 32.6581 24.6072 32.5863C24.6072 32.5856 24.6072 32.5823 24.6072 32.5816C24.6079 32.5809 24.6107 32.5781 24.6114 32.5774C25.6218 31.8741 26.7749 31.3046 27.6786 29.4056C27.9453 28.6796 28.0265 28.2442 27.7614 27.1216C27.6581 26.704 27.5302 26.3595 27.2453 26.0629C27.2459 26.0621 27.2487 26.0594 27.2494 26.0587C27.4216 25.9767 27.8674 26.3047 27.9364 26.0983C27.8311 25.5623 27.4681 24.8432 27.0572 24.4747C26.697 24.148 26.3059 24.1104 25.9765 24.4091C25.6052 24.6156 25.5266 25.3572 25.7051 26.0059C25.9034 26.4947 26.4392 26.5803 26.8208 27.5639V27.568C26.829 27.6296 26.952 28.3023 26.7592 28.5743C26.6034 29.0604 24.6004 30.6408 24.4583 30.7358C24.4568 30.7373 24.4465 30.7427 24.4453 30.7441C24.4446 30.7455 24.4411 30.7481 24.4404 30.7488C24.4404 30.7488 24.4371 30.7523 24.4364 30.7528C24.4356 30.7535 24.4321 30.757 24.4321 30.7577C24.4314 30.7577 24.428 30.7577 24.4274 30.7577C24.4274 30.7577 24.4239 30.7577 24.4232 30.7577C24.4227 30.757 24.4199 30.7535 24.4185 30.7528C24.4192 30.7528 24.4185 30.7488 24.4185 30.7488C24.4178 30.7474 24.4152 30.7413 24.4145 30.7399C24.4083 30.7003 24.4192 30.5997 24.4145 30.4378C24.4014 30.1417 24.5238 29.4725 24.5149 29.3577C24.5149 29.357 24.5149 29.3535 24.5149 29.3528C24.5142 29.3523 24.5114 29.3495 24.5107 29.3488C24.5107 29.3481 24.5107 29.3447 24.5107 29.3441C24.5095 29.3441 24.5067 29.3441 24.506 29.3441C23.8443 29.7719 23.6256 31.0823 23.5045 31.4707C21.8276 32.6294 19.924 33.4907 18.8274 34.6644C18.2566 35.5558 22.7621 33.6403 23.2857 33.4087C23.2905 33.4121 23.2946 33.4176 23.2989 33.4216C23.3986 33.531 23.4068 33.9132 23.7056 34.2577C24.1746 34.8921 25.1698 35.2825 26.1384 35.0405C27.7628 34.4532 28.6985 33.3465 29.6516 32.1181C29.7875 31.9198 30.0009 31.764 30.1984 31.9171C30.8533 33.3828 32.7407 34.4259 35.1818 34.5332C35.7464 33.8463 35.4764 33.5086 35.2475 33.365C35.1763 33.3186 34.0334 32.8728 33.8556 32.4293C33.7442 32.0163 34.0156 31.6498 34.5603 31.3744C36.1272 31.1851 37.6681 30.9745 39.1583 30.4953C39.1733 29.9943 39.4687 29.2457 39.6662 28.9203C39.8029 28.6947 39.8911 28.6721 39.9239 28.64C39.9253 28.6392 39.9274 28.6367 39.9287 28.6359C39.9287 28.6352 39.9328 28.6317 39.9328 28.6311C39.9335 28.6305 39.9363 28.6277 39.937 28.627C39.9377 28.6256 39.9377 28.6195 39.937 28.6181C39.9384 28.6086 39.937 28.5914 39.9328 28.5744L39.6792 28.4261L34.6787 28.4043C34.6165 28.3802 34.5707 28.3563 34.5428 28.3338C34.5407 28.3323 34.5359 28.3269 34.5338 28.3248C34.5331 28.3242 34.5303 28.3214 34.5296 28.3207C34.529 28.32 34.5262 28.3172 34.5255 28.3167C34.5248 28.3146 34.5215 28.3092 34.5209 28.3077C34.5209 28.307 34.5174 28.3035 34.5166 28.3029C34.5166 28.3029 34.5166 28.2995 34.5166 28.2988C34.5159 28.2981 34.5125 28.2948 34.5125 28.2948C34.5125 28.2941 34.5118 28.2906 34.5125 28.2899C34.5125 28.2899 34.5118 28.2866 34.5125 28.2858C34.5125 28.2851 34.5118 28.2816 34.5125 28.281C34.5118 28.2804 34.5125 28.2776 34.5125 28.2769C34.5125 28.2769 34.5125 28.2734 34.5125 28.2729C34.5118 28.2722 34.5125 28.2687 34.5125 28.268C34.5118 28.268 34.5125 28.2647 34.5125 28.2639C34.5118 28.2632 34.5125 28.2597 34.5125 28.2597C34.5132 28.2584 34.5159 28.2556 34.5166 28.255C34.5181 28.2529 34.5194 28.2489 34.5209 28.2461C34.5454 28.2133 34.6049 28.1826 34.6787 28.1545C35.8723 27.9918 37.9941 27.6438 38.135 25.604C38.1131 24.5409 37.6804 23.8451 36.3761 23.6523C35.4177 23.7268 34.7347 24.6531 34.8447 25.6737C34.7991 25.9484 34.9378 26.4878 34.6568 26.5487C32.8186 26.7168 30.813 27.8681 30.7453 28.6924C30.7446 28.6924 30.7411 28.6924 30.7411 28.6924C30.7404 28.6931 30.7371 28.6959 30.7364 28.6965C30.735 28.6972 30.7303 28.7 30.7275 28.7013C30.7261 28.7013 30.7206 28.7013 30.7193 28.7013C30.7159 28.7021 30.709 28.7047 30.7063 28.7055C30.7049 28.7055 30.7028 28.7055 30.7016 28.7055C30.6988 28.7055 30.6946 28.7055 30.6927 28.7055C30.6919 28.7055 30.6899 28.7055 30.6884 28.7055C30.6865 28.7055 30.6809 28.7055 30.6795 28.7055C30.6748 28.7047 30.6665 28.7021 30.6625 28.7013C30.5429 28.6678 30.3883 28.4709 30.413 28.1933C30.3427 26.7688 29.8791 25.1569 29.1532 23.9148C28.8933 23.6557 28.7806 23.5512 28.7068 23.5388C28.704 23.5381 28.6999 23.5388 28.6978 23.5388C28.6945 23.5388 28.6891 23.5388 28.6849 23.5388C28.6842 23.5388 28.6808 23.5388 28.6802 23.5388C28.6802 23.5388 28.6767 23.5388 28.6759 23.5388C28.6752 23.5388 28.6719 23.5388 28.6719 23.5388L28.6712 23.5389ZM51.2981 21.6528C51.0151 21.6391 50.7143 21.8224 50.6377 22.2086C50.6384 22.4362 50.7403 22.562 50.7205 22.7683C50.6911 22.8866 50.5694 22.9647 50.2788 22.8252C50.324 22.7833 50.0908 22.4533 50.0908 22.4533C49.8639 22.3152 49.5611 22.4608 49.3641 22.5893C49.2561 22.7861 49.1755 23.1239 49.2985 23.4683C49.6238 24.0693 50.7395 25.0953 51.272 25.1049C51.2816 24.5628 51.3342 23.8424 51.3636 23.394C51.3759 23.2251 51.4156 23.0384 51.5782 22.9961C51.7402 22.9537 52.0212 23.1587 52.0239 22.983C51.9945 22.6377 51.9255 22.1292 51.7313 21.8893C51.6317 21.7417 51.4676 21.6609 51.2981 21.6528ZM23.9633 21.5264C23.8921 21.5189 23.7992 21.5448 23.6919 21.6091C23.1827 21.8847 22.9858 22.7016 23.3022 23.18C23.599 23.6011 24.0671 23.4466 24.1294 23.4466C24.6283 23.5089 24.9258 22.5108 24.9258 22.5108C24.9258 22.5108 24.9409 22.2298 24.3481 22.7597C24.0986 22.8068 24.0652 22.7167 24.0022 22.5765C23.9502 22.3166 23.9619 22.0529 24.0815 21.7931C24.1362 21.6372 24.0814 21.538 23.9633 21.5264ZM43.3 21.3336C43.1962 21.3514 43.0956 21.4416 43.0594 21.5831C43.0361 21.6753 43.1038 21.8251 43.0198 21.8715C42.9719 21.9201 42.7846 21.8922 42.7921 21.6357C42.7921 21.5537 42.7326 21.4641 42.6964 21.4122C42.6595 21.3883 42.6349 21.3815 42.5693 21.3815C42.4893 21.3849 42.4907 21.406 42.447 21.4737C42.4285 21.5422 42.4032 21.6096 42.4032 21.6878C42.393 21.7793 42.3609 21.81 42.2939 21.8237C42.2187 21.8237 42.2323 21.8319 42.1715 21.793C42.1352 21.7534 42.0922 21.7376 42.0922 21.6706C42.0922 21.601 42.0744 21.4887 42.0532 21.443C42.0211 21.4006 41.9705 21.3834 41.9131 21.3684C41.5986 21.3698 41.5801 21.7266 41.5979 21.8628C41.5747 21.8887 41.5583 22.5334 41.9875 22.7117C42.5632 22.9866 43.6473 22.8655 43.6015 21.9372C43.6015 21.8553 43.579 21.5797 43.5714 21.5039C43.5126 21.3672 43.404 21.3159 43.3 21.3336ZM39.0652 19.2514C39.0898 19.3607 39.1144 19.4716 39.1308 19.5836C39.1855 19.8263 39.2334 20.0669 39.284 20.3055C39.0714 20.0128 38.8957 19.7771 38.8198 19.693C38.3392 19.1223 38.8308 19.3178 39.0652 19.2514ZM57.4484 18.7961C57.179 18.7866 56.8858 18.991 57.002 19.3909C56.9343 19.6097 57.5762 20.3506 57.6801 20.7559C57.7738 21.0445 57.538 21.9741 57.7328 22.0597C57.9119 22.1559 58.1641 21.4178 58.2578 20.734C58.3097 20.3601 58.0322 19.0469 57.5619 18.8132C57.5264 18.8036 57.4867 18.7975 57.4484 18.7961ZM24.1983 17.934C24.3324 17.9204 24.4951 18.044 24.5743 18.2183C24.6591 18.405 24.6167 18.5828 24.478 18.6169C24.3398 18.6505 24.1607 18.5274 24.076 18.3408C23.9912 18.1549 24.0337 17.9723 24.1717 17.9388C24.1806 17.9361 24.1896 17.9347 24.1983 17.934ZM42.1222 17.3045C41.8276 17.2956 41.5008 17.4816 41.628 17.8513C41.5541 18.0523 42.2623 18.7366 42.3765 19.1112C42.5816 19.6861 42.2192 20.235 42.4332 20.3144C42.6301 20.4033 42.9036 19.7204 43.0061 19.0894C43.125 18.5787 42.7607 17.5334 42.2453 17.3175C42.2056 17.3079 42.1646 17.3053 42.1222 17.3045ZM19.1151 17.2909C19.0318 17.3018 18.9396 17.349 18.8308 17.3742C18.4733 17.4878 18.139 17.7966 18.2443 18.3982C18.6668 20.9644 18.9423 22.9229 19.364 25.4899C19.4289 25.7907 19.1774 26.1865 18.8526 26.1461C18.3003 25.7723 18.1629 25.0154 17.2202 25.0476C16.5381 25.0558 15.7602 25.7989 15.6631 26.5139C15.5495 27.082 15.5086 27.6978 15.6631 28.1934C16.1423 28.7704 16.7171 28.7089 17.2202 28.5784C17.6346 28.4081 17.9757 28 18.122 28.0972C18.122 28.0979 18.1261 28.0972 18.1261 28.0972C18.1268 28.0979 18.1261 28.1012 18.1261 28.1019C18.2163 28.2597 18.1179 29.5947 16.1752 30.6257C14.9808 31.1623 14.0307 31.2901 13.5194 30.3153C13.2021 29.7063 13.5427 27.3861 12.7627 27.9221C10.4562 33.8672 18.1665 34.6977 19.0271 28.1674C19.0831 27.9828 19.2534 27.7984 19.3729 27.8433C19.4256 27.8659 19.4741 27.9371 19.4912 28.0711C19.312 33.9841 13.5261 34.3888 12.5439 32.5288C12.2998 32.0906 12.2266 31.1144 12.2026 30.5299C12.1576 30.1759 12.0687 29.9722 11.9662 29.8908C11.7317 29.7151 11.4164 30.1745 11.3495 30.9715C11.2517 31.6134 11.2791 31.7891 11.2791 32.4065C11.5881 37.0768 19.0338 35.0704 20.2438 31.2122C20.8426 29.2182 20.2313 27.7136 20.4317 27.5284C20.4332 27.5269 20.4386 27.5256 20.4407 27.5242C20.442 27.5227 20.4475 27.5209 20.4489 27.5201C20.4516 27.5187 20.4558 27.5159 20.4576 27.5153C20.4645 27.514 20.4762 27.5112 20.4845 27.5112C21.2233 28.3076 22.2604 27.6123 22.488 27.3362C22.5852 27.1981 22.8291 27.1093 23 27.2878C23.5763 27.7026 24.5866 27.5072 24.7979 26.7763C24.9194 26.0613 25.0227 25.3257 25.0473 24.5621C24.6713 24.679 24.3685 24.7665 24.2469 24.8951C24.2175 24.9266 24.1963 24.9621 24.1895 24.9996C24.1573 25.2109 24.1258 25.4227 24.0938 25.6339C24.0896 25.6518 24.0841 25.6682 24.0759 25.6825C24.0601 25.7085 24.0336 25.7324 24.0063 25.7482C23.8729 25.8206 23.6419 25.779 23.6295 25.5862C23.4511 24.774 22.7156 24.6681 22.2692 25.9273C21.9684 26.1707 21.4201 26.2184 21.3634 25.8528C21.4366 25.0086 21.0962 24.8951 20.4139 25.293C20.1944 23.6202 19.9772 22.0226 19.7576 20.3492C20.042 20.341 20.3033 20.5475 20.563 20.2228C20.2815 19.3478 19.6866 17.5677 19.351 17.401C19.3482 17.3995 19.3449 17.3975 19.3421 17.3961C19.327 17.3784 19.3093 17.3613 19.2942 17.3482C19.2881 17.3429 19.2785 17.3353 19.2724 17.3305C19.2662 17.3263 19.2567 17.3209 19.2506 17.3174C19.2369 17.31 19.2198 17.3044 19.2068 17.3003C19.1761 17.2915 19.1467 17.2873 19.1146 17.2915L19.1151 17.2909ZM13.2131 17.2827C13.0504 17.3011 12.8972 17.4337 12.8234 17.6108C12.7968 18.2349 12.7927 18.8591 12.8631 19.4347C13.1474 20.4443 13.2371 21.3322 13.3751 22.366C13.4133 23.7509 12.5752 22.9653 12.6135 22.2785C12.8071 21.387 12.7551 19.9835 12.5827 19.6274C12.4468 19.272 12.2889 19.1838 11.9573 19.2426C11.6941 19.2261 11.0145 19.9673 10.8245 21.1935C10.8245 21.1935 10.6659 21.8231 10.597 22.3837C10.5039 23.0173 10.0842 23.4658 9.79161 22.2962C9.5387 21.4465 9.38351 19.3519 8.96036 19.8421C8.8394 21.4773 8.6952 24.3545 10.0848 24.6497C11.7657 24.8118 10.8368 21.8088 11.4451 21.264C11.5606 20.9946 11.7733 20.9898 11.7911 21.3296V23.8802C11.776 24.7093 12.3215 24.9555 12.7447 25.127C13.1857 25.0929 13.4776 25.1052 13.6504 25.5338C13.7194 27.0043 13.7913 28.478 13.8603 29.9484C13.8603 29.9484 14.8795 30.2411 14.9281 27.4677C14.9766 25.8392 14.6033 24.4721 14.8228 24.1557C14.831 23.8447 15.2295 23.8289 15.5056 23.9807C15.9445 24.2904 16.1395 24.6717 16.8223 24.5186C17.8613 24.233 18.4869 23.7285 18.5025 22.9307C18.4418 22.1726 18.3543 21.4137 18.0255 20.6557C18.0713 20.5176 17.8266 20.1593 17.8723 20.0213C18.0589 20.3139 18.3413 20.2894 18.4063 20.0213C18.2292 19.4389 17.9537 18.8805 17.5095 18.6391C17.1416 18.3151 16.6037 18.3835 16.4067 19.0588C16.315 19.8368 16.6891 20.7596 17.2557 21.513C17.3761 21.8075 17.5442 22.2977 17.4698 22.738C17.1682 22.9102 16.8695 22.8385 16.6166 22.5718C16.6166 22.5718 15.79 21.9531 15.79 21.8151C16.0095 20.4103 15.8373 20.249 15.7157 19.8593C15.6308 19.3213 15.3752 19.1505 15.1689 18.7834C14.9617 18.5639 14.6815 18.5639 14.5474 18.7834C14.1817 19.4171 14.3534 20.7768 14.6171 21.3865C14.8085 21.9464 15.1004 22.2964 14.963 22.2964C14.8495 22.6129 14.613 22.5391 14.4421 22.174C14.1988 21.4187 14.1495 20.2928 14.1495 19.7849C14.0764 19.156 13.9943 17.812 13.5807 17.4709C13.4702 17.3203 13.3396 17.2676 13.2131 17.2827ZM44.4991 17.163C44.441 17.1691 44.3706 17.258 44.2625 17.4871C44.0028 17.9122 43.8264 18.6533 43.8469 19.3464C44.4095 23.2401 44.5817 26.6478 44.9495 30.5422C44.9796 30.919 44.9243 31.4658 44.674 31.6839C43.7478 32.6505 42.4127 33.8435 40.9594 34.3922C40.8029 34.568 41.3484 35.3158 42.0531 35.3151C43.2324 35.1784 44.2686 34.5167 45.2298 32.7734C45.4868 32.3667 45.938 31.4965 45.9516 30.8218C46.0412 26.8672 45.752 23.7924 45.1594 20.9343C45.1218 20.6561 45.1471 20.3265 45.1942 20.2432C45.2708 20.1523 45.5299 20.2453 45.6673 20.0203C45.8683 19.8146 45.1287 18.1084 44.7089 17.4521C44.6249 17.2874 44.5736 17.1562 44.4991 17.163ZM24.3037 17.1547C24.1047 17.165 23.9289 17.2218 23.7787 17.299C23.3972 17.6646 23.3077 18.2505 23.6084 18.6156C23.901 18.7537 24.1929 19.0484 23.9974 19.2109C23.1702 20.0942 21.0177 21.5709 20.9089 21.8401C20.9083 21.8421 20.9048 21.847 20.9048 21.8491C20.9041 21.851 20.9048 21.856 20.9048 21.8579C20.9048 21.8586 20.9041 21.8614 20.9048 21.8621C20.9055 21.8642 20.9076 21.8689 20.9089 21.871C20.9096 21.8716 20.9124 21.8744 20.9131 21.8751C20.9138 21.8758 20.9171 21.8751 20.9178 21.8751C20.9185 21.8758 20.9213 21.8791 20.922 21.8798C20.9233 21.8798 20.9254 21.8791 20.9267 21.8798C20.9267 21.8798 20.9302 21.884 20.9308 21.884C21.0401 21.9571 22.3876 21.9557 22.5366 21.8881C22.5373 21.8881 22.54 21.8847 22.5408 21.884H22.5455C22.5455 21.884 22.5448 21.8798 22.5455 21.8798C23.0083 21.709 25.2053 19.1974 25.2053 19.1974C25.0912 19.1004 24.9866 19.0285 24.8724 18.9308C24.7508 18.8255 24.7631 18.7216 24.8724 18.6157C25.4164 18.2991 25.2442 17.6026 24.9599 17.286C24.7248 17.1801 24.5027 17.1445 24.3037 17.1547ZM16.5776 17.1459C16.4739 17.1637 16.3732 17.2497 16.337 17.3906C16.3139 17.4836 16.3766 17.6373 16.2932 17.6838C16.2448 17.7323 16.0622 17.6996 16.0698 17.4432C16.0698 17.3618 16.0102 17.2764 15.9741 17.2244C15.9371 17.2005 15.9126 17.1937 15.847 17.1937C15.767 17.1972 15.7683 17.2184 15.7245 17.2859C15.7048 17.3543 15.6795 17.4213 15.6795 17.4999C15.6699 17.5915 15.633 17.6223 15.566 17.6352C15.4909 17.6352 15.5086 17.6434 15.4477 17.6053C15.4114 17.5656 15.3691 17.5498 15.3691 17.4821C15.3691 17.4124 15.3507 17.3009 15.3296 17.2553C15.2981 17.2128 15.2475 17.1909 15.1894 17.1758C14.8749 17.1773 14.8524 17.539 14.8702 17.6749C14.8469 17.7008 14.8352 18.3415 15.2639 18.5192C15.8402 18.7941 16.9196 18.6778 16.8737 17.7495C16.8737 17.6674 16.8559 17.3913 16.8477 17.3161C16.789 17.1794 16.6802 17.1275 16.5764 17.1459H16.5776ZM46.6818 17.0625C46.6333 17.0714 46.5615 17.1453 46.4282 17.3209C46.0987 18.3975 45.9832 19.2773 46.1089 19.9459C46.9545 24.3605 47.8213 28.3828 47.6839 32.5849C48.0845 32.5876 48.5487 31.6675 48.747 30.7563C48.855 29.5019 48.6745 28.7376 48.6417 28C48.6095 27.2624 47.807 21.2783 47.6443 20.7204C47.4481 19.665 48.4243 20.5816 48.3183 19.9679C47.9807 19.194 47.1378 18.0674 46.8746 17.3954C46.7755 17.215 46.7632 17.0489 46.6818 17.0625ZM59.0453 16.9968C58.9879 17.003 58.9175 17.0959 58.8095 17.325C58.5497 17.7503 58.4602 18.5117 58.564 19.1843C59.1896 23.413 59.6537 27.5071 59.75 31.2553C59.6961 31.6107 59.6803 31.8 59.5135 32.2484C59.1444 32.7215 58.7376 33.3143 58.3542 33.6C57.9707 33.8857 57.1551 34.1585 56.8885 34.3704C56.0422 34.8591 56.0382 35.4218 56.7224 35.4423C57.9009 35.3049 59.2962 35.2085 60.2573 33.7579C60.5143 33.3512 60.8171 32.2492 60.8301 31.5746C60.9204 27.62 60.7795 23.7535 60.1875 20.8954C60.1493 20.6166 60.0262 19.9766 60.0734 19.8933C60.15 19.6979 60.5355 19.9131 60.6729 19.6876C60.8745 19.4818 59.6755 17.9465 59.2551 17.2902C59.1717 17.1253 59.1198 16.9901 59.0453 16.9968ZM10.478 16.9914C10.2244 16.9839 9.94414 17.1417 10.0535 17.4466C9.98999 17.6128 10.5505 18.1746 10.649 18.483C10.7371 18.7032 10.5615 19.4114 10.7446 19.4762C10.9142 19.5494 11.1465 18.9861 11.2348 18.4659C11.2839 18.1809 11.2472 17.2045 10.5834 17.0043C10.5491 16.9968 10.5142 16.9922 10.478 16.9914ZM53.1124 16.9476C53.0412 16.9367 52.9633 16.9715 52.8758 17.1008C52.709 17.2472 52.5293 17.5123 52.5347 17.8535C52.575 18.4536 52.6824 19.0688 52.7227 19.6692C52.7371 19.7492 52.7521 19.8291 52.7665 19.9098C52.7022 19.8277 52.6455 19.7635 52.6133 19.7306C51.443 18.5009 53.1514 19.5297 52.3905 18.5795C51.7465 17.8733 51.5585 17.6485 51.0075 17.2232C50.7314 17.0447 50.5646 16.7037 50.4743 17.2848C50.4381 17.7948 50.4005 18.3859 50.4347 18.8161C50.4327 19.0553 50.6801 19.5051 50.8941 19.7696C51.6747 20.7287 52.4725 21.75 53.2743 22.815C53.4425 24.9868 53.4876 26.9781 53.6592 29.154C53.6346 30.0851 53.3488 31.3211 53.0774 31.438C53.0774 31.438 52.6625 31.6758 52.3856 31.4112C52.1847 31.3306 51.3794 30.0686 51.3794 30.0686C50.9678 29.6906 50.693 29.7986 50.3998 30.0686C49.5911 30.8493 49.2254 32.3116 48.6758 33.3192C48.5343 33.5441 48.135 33.7354 47.6914 33.3014C46.5648 31.7619 47.2238 29.5711 47.0837 30.1342C46.0802 31.2649 46.5245 33.1394 46.7508 33.542C47.0817 34.2045 47.3496 34.6283 47.9935 34.9557C48.5801 35.387 49.0367 35.1177 49.2883 34.8155C49.8789 34.2038 49.8864 32.6397 50.1633 32.3307C50.3581 31.7619 50.8448 31.8597 51.082 32.1119C51.3124 32.4429 51.5838 32.6582 51.9222 32.838C52.4724 33.3233 53.1294 33.4114 53.7774 32.9692C54.2197 32.7211 54.5068 32.3984 54.7659 31.7619C55.0442 31.0182 54.9067 27.1216 54.8445 24.954C55.2602 25.5398 55.671 26.1379 56.0784 26.7436C56.2575 28.646 56.3389 30.5197 56.2794 32.317C56.2377 32.6745 57.5262 31.2506 57.518 30.5759C57.5119 29.986 57.5187 29.4507 57.518 28.9529C58.1428 29.951 58.7485 30.9662 59.32 31.9936C59.6747 31.8056 59.5531 29.7986 59.3289 29.5217C58.73 28.5163 57.963 27.4307 57.369 26.5905C57.2514 25.5296 57.0914 24.2786 57.019 23.8951C56.9055 23.2977 56.7921 22.3994 56.6211 21.6905C56.5739 21.4129 56.4318 20.5285 56.4762 20.4436C56.5466 20.2455 56.8105 20.4498 56.9404 20.2202C57.1352 20.0083 56.2657 17.7566 55.8247 17.114C55.6661 16.8261 55.379 16.9259 55.0242 17.3943C54.6947 17.7018 54.815 18.4052 54.9408 19.0738C55.2676 20.778 55.5588 22.5142 55.7899 24.2452C55.3626 23.6109 54.8417 22.8424 54.3283 22.1015C54.3147 22.0304 54.2627 21.7686 54.2627 21.7645C54.2627 21.7343 54.1923 20.3706 54.1314 20.0452C54.1205 19.9133 54.0891 19.8757 54.2278 19.892C54.3741 20.0158 54.3939 20.0219 54.4856 20.063C54.6339 20.0903 54.7631 19.8394 54.6742 19.6076C54.2162 18.7634 53.7582 17.915 53.3002 17.0701C53.245 17.016 53.1835 16.9586 53.1124 16.9476ZM36.5919 16.7768C36.4456 16.7903 36.3294 16.876 36.2857 17.0919C36.2276 17.6005 36.2577 17.8766 36.3431 18.2998C36.4081 18.5815 36.8189 19.0538 37.0213 19.3279C37.9865 20.6254 38.9155 21.9291 39.8124 23.2786C39.9532 24.28 40.0564 25.2603 40.1227 26.2357C40.2683 28.3754 40.3128 31.0393 40.1801 33.2925C40.5808 33.3089 41.2233 32.6451 41.4489 31.6744C41.5952 30.3304 41.3963 27.5892 41.3832 26.7963C41.3736 26.4667 41.3531 26.0737 41.3306 25.663C42.3737 27.3678 43.3861 29.1745 44.3794 31.1576C44.7418 30.9854 44.6618 28.9462 44.4499 28.6598C43.6542 26.948 42.5556 25.2582 42.2056 24.6081C42.0791 24.3735 41.6485 23.7187 41.1378 22.9634C41.0442 21.8854 40.9416 20.9727 40.8753 20.6973C40.7112 19.5577 41.3435 20.8258 41.256 20.1634C41.0509 19.0252 40.4228 18.252 39.681 17.2102C39.4418 16.8711 39.4465 16.8022 39.0774 17.2929C38.8567 17.7941 38.8594 18.2104 38.9243 18.6013C38.8272 18.4604 38.7069 18.293 38.5347 18.0852C37.8942 17.5356 37.8545 17.5055 37.3227 17.057C37.1552 16.9381 36.836 16.7549 36.5926 16.7768H36.5919ZM31.0186 16.6762C30.8765 16.6885 30.7185 16.8546 30.59 17.1753C30.4793 17.4187 30.3445 18.6935 30.3664 18.6935C30.2784 19.0729 30.763 19.2336 30.9838 18.7462C31.314 17.8522 31.316 17.4713 31.3379 17.0919C31.2866 16.8035 31.1607 16.6641 31.0186 16.6762ZM32.528 16.5587C32.4365 16.571 32.3243 16.6885 32.1691 16.9703C32.0578 17.2649 31.5771 17.712 31.9237 18.6328C32.2074 19.2166 32.3236 20.1653 32.1952 21.2228C31.999 21.5229 31.9538 21.6269 31.6968 21.927C31.3345 22.3161 30.9427 22.2169 30.6421 22.0713C30.361 21.8819 30.1402 21.7848 30.0124 21.1833C30.0357 20.2241 30.091 18.6554 29.916 18.3217C29.6577 17.8063 29.2318 17.9909 29.0499 18.1467C28.1749 18.9466 27.7429 20.2966 27.479 21.3712C27.2364 22.154 26.978 21.9276 26.7968 21.6119C26.3547 21.1976 26.3238 17.9601 25.7906 18.4926C24.9361 20.9344 26.2807 23.6086 27.2124 23.3489C27.8844 23.6272 28.3109 22.3481 28.5858 20.9467C28.7744 20.5537 28.918 20.5085 29.0144 20.711C28.9897 22.5737 29.1483 22.9893 29.6269 23.5547C30.6953 24.3785 31.5792 23.6592 31.6483 23.5895L32.4796 22.7583C32.6648 22.5635 32.9096 22.5518 33.1706 22.7235C33.4249 22.9545 33.392 23.3522 33.9363 23.6291C34.3943 23.8123 35.3725 23.6736 35.5988 23.2791C35.9043 22.7556 35.9782 22.5758 36.1197 22.3775C36.3377 22.0877 36.7103 22.2162 36.7103 22.3079C36.6755 22.4692 36.4567 22.6292 36.605 22.9204C36.8641 23.1144 36.9249 22.9893 37.0781 22.9463C37.6202 22.6873 38.0269 21.5114 38.0269 21.5114C38.0516 21.0725 37.802 21.106 37.6421 21.1963C37.4343 21.3235 37.4213 21.3665 37.2135 21.4936C36.9482 21.5333 36.4349 21.7083 36.1813 21.3145C35.9215 20.8415 35.9202 20.1818 35.7219 19.7047C35.7219 19.6697 35.3746 18.9541 35.6952 18.9083C35.8572 18.9384 36.2052 19.0278 36.2599 18.7373C36.4294 18.4544 35.8935 17.6511 35.5291 17.2458C35.2127 16.8984 34.7758 16.8561 34.352 17.211C34.056 17.4837 34.0997 17.7879 34.0416 18.077C33.9665 18.4085 33.9808 18.8194 34.3172 19.2583C34.6132 19.8421 35.1511 20.5906 34.9735 21.6467C34.9735 21.6467 34.6609 22.1498 34.1114 22.0842C33.8824 22.0343 33.5098 21.9352 33.311 20.4703C33.1612 19.3607 33.3484 17.807 32.8782 17.0797C32.7714 16.8047 32.6804 16.5382 32.528 16.5587ZM27.7592 16.5328C27.7045 16.5307 27.6239 16.5615 27.5097 16.6291C27.2533 16.8007 26.7462 17.3291 26.7311 17.9369C26.7154 18.28 26.6505 18.2787 26.8754 18.4967C27.0374 18.7312 27.1994 18.7079 27.5275 18.5364C27.7155 18.3976 27.779 18.3094 27.842 18.077C27.9199 17.6873 27.4318 18.2617 27.3695 17.8275C27.2608 17.4248 27.572 17.2595 27.8686 16.8697C27.8755 16.6859 27.8783 16.5361 27.7592 16.5328Z" fill="white"/>
</g>
</g>
<defs>
<clipPath id="clip0_146_18333">
<rect width="70" height="70" fill="white"/>
</clipPath>
</defs>
</svg>
