<svg width="61" height="61" viewBox="0 0 61 61" fill="none" xmlns="http://www.w3.org/2000/svg">
<g clip-path="url(#clip0_157_504)">
<path d="M60.7359 1.83873C60.6438 1.008 59.9881 0.3518 59.1569 0.259652C45.0145 -1.31105 32.959 4.34627 23.1252 14.469C20.311 17.3661 17.87 20.4326 15.7864 23.392C12.2601 23.2487 8.35038 24.844 5.5785 27.6159L0.523404 32.671C-0.0485637 33.243 -0.164912 34.1282 0.239515 34.8286C0.643941 35.529 1.46815 35.8701 2.25001 35.6612C3.4228 35.3461 5.32859 34.9798 7.15944 34.8947C7.82868 34.8635 8.38482 34.8733 8.84696 34.9086C7.73141 37.0541 6.87648 38.8514 6.59306 39.3015C6.14907 40.0079 6.25193 40.9271 6.84204 41.5172L9.76704 44.4422C5.51009 50.248 5.43982 53.2214 5.45471 53.6426C5.48589 54.5347 6.18165 55.3706 7.33397 55.3706C8.33177 55.3706 11.1935 54.9471 16.4031 51.0782L19.4798 54.155C20.0741 54.7493 21.0026 54.8489 21.71 54.3946C22.1912 54.0851 23.8829 53.2661 25.9115 52.2059C25.945 53.718 25.7398 55.9383 25.2944 58.948C25.0412 60.6551 27.1164 61.6827 28.326 60.4736L33.3811 55.4185C35.9877 52.8118 37.4993 48.9402 37.3876 45.3083C40.5053 43.1298 43.7486 40.5599 46.777 37.5902C56.8034 27.7579 62.2866 15.7935 60.7359 1.83873ZM57.3172 3.67796C57.6025 7.53142 57.2981 11.2667 56.4115 14.8814C54.2097 14.1879 52.0573 12.8257 50.1134 10.8822C48.1624 8.93085 46.7974 6.76957 46.1068 4.55988C49.7201 3.68634 53.4577 3.39035 57.3172 3.67796ZM6.92628 31.3232L8.10559 30.1435C9.53202 28.7175 11.3871 27.6904 13.2319 27.2287C12.2681 28.7585 11.4089 30.2193 10.6513 31.5676C9.48082 31.3093 8.17958 31.2613 6.92628 31.3232ZM10.3083 39.9288C10.695 39.1656 11.1628 38.2087 12.0214 36.5864L14.374 38.9394C13.4986 39.8786 12.7083 40.7707 11.9963 41.6163L10.3083 39.9288ZM19.0479 39.2452C20.3501 37.9435 21.5987 37.7056 23.1499 37.6721C23.1159 39.1837 22.8734 40.4747 21.5755 41.7727C16.027 47.3211 12.2238 49.7989 9.94947 50.9047C11.0715 48.5865 13.5558 44.7373 19.0479 39.2452ZM21.0579 50.6785L19.215 48.835C20.0564 48.1202 20.9458 47.3276 21.884 46.449L24.3883 48.9533C22.7417 49.8324 22.0548 50.1633 21.0579 50.6785ZM30.8531 52.8909L29.4224 54.322C29.5383 52.5884 29.4983 51.3254 29.3345 50.3508C30.6488 49.6109 32.0761 48.7718 33.5719 47.8331C33.1456 49.7226 32.1873 51.5571 30.8531 52.8909ZM27.6419 47.1522L24.4376 43.9475C26.8088 41.3385 26.7204 38.8244 26.7204 35.8873C26.7204 34.9002 25.9204 34.1002 24.9333 34.1002C22.1893 34.1002 19.5487 33.9532 16.8731 36.3835L13.8132 33.3235C22.1688 18.6715 31.8271 9.39532 42.6787 5.57537C43.5378 8.35516 45.21 11.0335 47.5863 13.4098C49.9514 15.7754 52.6172 17.4434 55.3849 18.3057C51.5426 29.0977 42.2687 38.75 27.6419 47.1522Z" fill="#B0DDF9"/>
<path d="M45.0593 15.9367C41.5749 12.4527 35.9055 12.4527 32.4215 15.9367C28.9376 19.4211 28.9376 25.0905 32.4215 28.5744C35.9055 32.0584 41.5749 32.0588 45.0593 28.5744C48.5432 25.0905 48.5432 19.4211 45.0593 15.9367ZM42.5317 26.0469C40.4412 28.1374 37.0392 28.1374 34.9491 26.0469C32.8585 23.9563 32.8585 20.5548 34.9491 18.4642C37.0392 16.3741 40.4407 16.3737 42.5317 18.4642C44.6223 20.5548 44.6223 23.9563 42.5317 26.0469Z" fill="#B0DDF9"/>
</g>
<defs>
<clipPath id="clip0_157_504">
<rect width="61" height="61" fill="white"/>
</clipPath>
</defs>
</svg>
