<svg width="54" height="54" viewBox="0 0 54 54" fill="none" xmlns="http://www.w3.org/2000/svg">
<path d="M26.993 0.752441C21.8376 0.752441 17.6217 4.98296 17.6217 10.1384C17.6217 15.2938 21.8376 19.506 26.993 19.506C32.1485 19.506 36.379 15.2938 36.379 10.1384C36.379 4.98296 32.1485 0.752441 26.993 0.752441ZM26.993 4.5025C30.1218 4.5025 32.629 7.00959 32.629 10.1384C32.629 13.2672 30.1218 15.7559 26.993 15.7559C23.8642 15.7559 21.3754 13.2672 21.3754 10.1384C21.3754 7.00959 23.8642 4.5025 26.993 4.5025ZM17.6217 21.3773C14.5379 21.3773 12.004 23.9113 12.004 26.9951V30.7451C8.83759 30.7097 5.7617 30.7451 2.61804 30.7451C0.115601 30.7451 0.115601 34.4986 2.61804 34.4986H4.50403V47.6199C4.50403 50.7038 7.03788 53.2524 10.1217 53.2524H43.879C46.9629 53.2524 49.5004 50.7038 49.5004 47.6199V34.4986H51.3827C53.8851 34.4986 53.8851 30.7451 51.3827 30.7451H41.9967V26.9951C41.9967 23.9113 39.4629 21.3773 36.379 21.3773H17.6217ZM17.6217 25.1274H36.379C37.4502 25.1274 38.2467 25.924 38.2467 26.9951V30.7451H15.754V26.9951C15.754 25.924 16.5505 25.1274 17.6217 25.1274ZM8.25403 34.4986H45.7467V47.6199C45.7467 48.6912 44.9502 49.5023 43.879 49.5023H10.1217C9.05053 49.5023 8.25403 48.6912 8.25403 47.6199V34.4986Z" fill="#B0DDF9"/>
</svg>
